<svg xmlns="http://www.w3.org/2000/svg" width="226.437" height="90.372" viewBox="0 0 226.437 90.372"><g transform="translate(-217.198 -219.061)"><path d="M395.055,220.131h7v18.08h12.224v5.968h-19.22Z" transform="translate(-78.565 -0.473)"/><path d="M434.266,220.131h7.1v4.914h-7.1Zm.145,6.635h6.815v17.413h-6.815Z" transform="translate(-95.885 -0.473)"/><path d="M452.289,238.466v-.07c0-5.371,4.255-9.9,10.421-9.9a9.345,9.345,0,0,1,8.33,4.213l-4.616,3.37a4.4,4.4,0,0,0-3.642-2,4,4,0,0,0-3.859,4.247v.07c0,2.422,1.587,4.318,3.895,4.318a4.56,4.56,0,0,0,3.75-1.966l4.581,3.23a9.659,9.659,0,0,1-8.655,4.353,9.913,9.913,0,0,1-10.2-9.864" transform="translate(-103.847 -4.168)"/><path d="M488.077,238.439v-.07a9.669,9.669,0,0,1,9.845-9.934c6.707,0,9.807,4.809,9.807,10.391,0,.421,0,.913-.035,1.369H494.639a3.955,3.955,0,0,0,4.219,3.124,5.718,5.718,0,0,0,4.327-1.931l3.786,3.054a10.151,10.151,0,0,1-8.438,3.862c-6.13,0-10.457-4-10.457-9.864m13.27-1.65c-.252-2.106-1.55-3.44-3.425-3.44-1.839,0-2.994,1.334-3.39,3.44Z" transform="translate(-119.655 -4.14)"/><path d="M527.222,238.439v-.07c0-5.441,4.544-9.934,10.782-9.934s10.746,4.458,10.746,9.864v.07c0,5.441-4.58,9.934-10.817,9.934-6.2,0-10.71-4.423-10.71-9.864m14.892,0v-.07a4.182,4.182,0,0,0-4.182-4.318,4.015,4.015,0,0,0-4.075,4.247v.07A4.167,4.167,0,0,0,538,242.651a4.054,4.054,0,0,0,4.111-4.212" transform="translate(-136.947 -4.14)"/><path d="M392.512,284.974v-.07c0-7.161,5.625-12.778,13.27-12.778,5.12,0,8.51,2.106,10.709,5.09l-5.264,3.966a6.856,6.856,0,0,0-5.518-2.878c-3.533,0-6.022,2.949-6.022,6.53v.07c0,3.686,2.488,6.565,6.022,6.565,2.632,0,4.147-1.194,5.7-2.984l5.265,3.651a12.852,12.852,0,0,1-11.142,5.547,12.653,12.653,0,0,1-13.018-12.708" transform="translate(-77.441 -23.44)"/><path d="M438.829,296.332v-.07c0-3.967,3.065-5.968,7.644-5.968a14.151,14.151,0,0,1,4.687.737v-.317c0-2-1.261-3.124-3.894-3.124a14.378,14.378,0,0,0-5.409,1.054l-1.406-4.669a20.071,20.071,0,0,1,7.9-1.474c3.5,0,5.877.807,7.428,2.317,1.479,1.4,2.092,3.37,2.092,6.038v10.918h-6.743v-2a7.609,7.609,0,0,1-5.769,2.422c-3.715,0-6.527-2.106-6.527-5.862m12.4-1.439v-.878a7.725,7.725,0,0,0-2.7-.491c-2.019,0-3.138.913-3.138,2.351v.071c0,1.3,1.01,2.071,2.416,2.071,2.019,0,3.426-1.193,3.426-3.124" transform="translate(-97.901 -28.023)"/><path d="M479.2,282.671h6.852v2.6a7.215,7.215,0,0,1,5.805-3.019,6.012,6.012,0,0,1,5.626,3.089,8.127,8.127,0,0,1,6.527-3.089c4.182,0,6.671,2.492,6.671,6.95v12.462h-6.851V291.341c0-2.106-1.046-3.194-2.669-3.194s-2.813,1.089-2.813,3.194v10.321h-6.815V291.341c0-2.106-1.082-3.194-2.7-3.194s-2.777,1.089-2.777,3.194v10.321H479.2Z" transform="translate(-115.735 -27.913)"/><path d="M541.928,282.671h6.852V285.2a7.216,7.216,0,0,1,5.913-2.949c4.616,0,8.655,3.755,8.655,9.828v.071c0,6.178-4,9.934-8.619,9.934a7.451,7.451,0,0,1-5.95-2.738v7.934h-6.852Zm14.713,9.513v-.07a4.111,4.111,0,0,0-4-4.318,4.067,4.067,0,0,0-4,4.318v.07a4.014,4.014,0,1,0,8.005,0" transform="translate(-143.443 -27.913)"/><path d="M584.241,292.254v-.07c0-5.441,4.543-9.934,10.781-9.934s10.746,4.458,10.746,9.864v.07c0,5.441-4.579,9.934-10.818,9.934-6.2,0-10.71-4.423-10.71-9.864m14.892,0v-.07a4.182,4.182,0,0,0-4.182-4.318,4.014,4.014,0,0,0-4.075,4.247v.07a4.166,4.166,0,0,0,4.146,4.282,4.054,4.054,0,0,0,4.111-4.212" transform="translate(-162.134 -27.912)"/><path d="M391.5,329.088h7.789l5.733,15.551,5.769-15.551h7.644L408.2,353.835h-6.49Z" transform="translate(-76.995 -48.602)"/><path d="M437.238,348.336v-.07a9.669,9.669,0,0,1,9.844-9.934c6.708,0,9.809,4.809,9.809,10.391,0,.422,0,.913-.036,1.369H443.8a3.955,3.955,0,0,0,4.219,3.124,5.717,5.717,0,0,0,4.327-1.931l3.786,3.054A10.151,10.151,0,0,1,447.7,358.2c-6.13,0-10.457-4-10.457-9.864m13.271-1.65c-.253-2.106-1.551-3.44-3.427-3.44-1.838,0-2.992,1.334-3.389,3.44Z" transform="translate(-97.198 -52.685)"/><path d="M477.741,338.829h6.851v3.826c1.118-2.562,2.885-4.283,6.167-4.142v7.021h-.577c-3.606,0-5.589,1.966-5.589,6.354v5.933h-6.851Z" transform="translate(-115.09 -52.762)"/><path d="M503.451,343.419v-.07c0-6.178,4-9.934,8.618-9.934a7.453,7.453,0,0,1,5.95,2.738V327.2h6.852v25.626h-6.852V350.3a7.216,7.216,0,0,1-5.914,2.949c-4.616,0-8.654-3.755-8.654-9.829m14.713-.07v-.07a4.067,4.067,0,0,0-4-4.318,4.11,4.11,0,0,0-4,4.318v.07a4.11,4.11,0,0,0,4,4.318,4.067,4.067,0,0,0,4-4.318" transform="translate(-126.447 -47.769)"/><path d="M547.056,348.336v-.07a9.669,9.669,0,0,1,9.844-9.934c6.707,0,9.808,4.809,9.808,10.391,0,.422,0,.913-.036,1.369H553.619a3.954,3.954,0,0,0,4.219,3.124,5.717,5.717,0,0,0,4.327-1.931l3.786,3.054a10.153,10.153,0,0,1-8.438,3.862c-6.13,0-10.457-4-10.457-9.864m13.27-1.65c-.253-2.106-1.55-3.44-3.426-3.44-1.839,0-2.994,1.334-3.39,3.44Z" transform="translate(-145.708 -52.685)"/><path d="M248.731,279.113a20.208,20.208,0,1,1,32.059-22.949l22.8-9.644a44.964,44.964,0,1,0-76.622,45.461,52.019,52.019,0,0,1,17.017-11.2q2.341-.949,4.745-1.665" transform="translate(0 0)" fill="#2fad62"/><path d="M239.37,344.248h0a48.628,48.628,0,0,0,68.495.272l-.272-.272a48.241,48.241,0,0,0-68.223,0" transform="translate(-9.794 -49.057)" fill="#c6d33a"/></g></svg>