<svg xmlns="http://www.w3.org/2000/svg" width="127.898" height="191.925" viewBox="0 0 127.898 191.925"><g transform="translate(-535.152 -180.167)"><path d="M537.117,287.053h6.929v17.908h12.108v5.911H537.117Z" fill="#fff"/><path d="M558.8,287.053h7.037v4.868H558.8Zm.142,6.571h6.75v17.247h-6.75Z" fill="#fff"/><path d="M568.765,301.553v-.069c0-5.32,4.215-9.806,10.322-9.806a9.255,9.255,0,0,1,8.251,4.174l-4.572,3.337a4.362,4.362,0,0,0-3.607-1.981,3.958,3.958,0,0,0-3.822,4.207v.069c0,2.4,1.571,4.276,3.857,4.276a4.519,4.519,0,0,0,3.715-1.946l4.536,3.2a9.568,9.568,0,0,1-8.573,4.311,9.818,9.818,0,0,1-10.107-9.771" fill="#fff"/><path d="M588.554,301.554v-.07a9.576,9.576,0,0,1,9.75-9.84c6.643,0,9.715,4.764,9.715,10.292,0,.417,0,.9-.035,1.356h-12.93a3.917,3.917,0,0,0,4.179,3.094,5.662,5.662,0,0,0,4.286-1.912l3.75,3.025a10.057,10.057,0,0,1-8.358,3.825c-6.071,0-10.357-3.964-10.357-9.77m13.143-1.635c-.25-2.086-1.536-3.407-3.393-3.407-1.821,0-2.964,1.321-3.357,3.407Z" fill="#fff"/><path d="M610.2,301.553v-.069c0-5.389,4.5-9.839,10.68-9.839s10.643,4.415,10.643,9.77v.069c0,5.39-4.536,9.84-10.715,9.84-6.143,0-10.608-4.381-10.608-9.771m14.751,0v-.069a4.142,4.142,0,0,0-4.143-4.276,3.977,3.977,0,0,0-4.036,4.207v.069a4.127,4.127,0,0,0,4.108,4.242,4.015,4.015,0,0,0,4.071-4.173" fill="#fff"/><path d="M535.71,328.529v-.07c0-7.093,5.572-12.656,13.144-12.656,5.071,0,8.429,2.086,10.607,5.042l-5.214,3.928a6.789,6.789,0,0,0-5.465-2.85c-3.5,0-5.964,2.92-5.964,6.467v.069c0,3.651,2.464,6.5,5.964,6.5,2.607,0,4.108-1.182,5.643-2.955l5.215,3.616a12.73,12.73,0,0,1-11.036,5.494,12.532,12.532,0,0,1-12.894-12.587" fill="#fff"/><path d="M561.321,335.239v-.069c0-3.929,3.037-5.911,7.572-5.911a14.008,14.008,0,0,1,4.643.731v-.314c0-1.982-1.25-3.094-3.857-3.094a14.264,14.264,0,0,0-5.358,1.043L562.928,323a19.857,19.857,0,0,1,7.822-1.46c3.465,0,5.822.8,7.358,2.294,1.464,1.391,2.071,3.338,2.071,5.98v10.814H573.5v-1.982a7.534,7.534,0,0,1-5.715,2.4c-3.679,0-6.465-2.086-6.465-5.807m12.287-1.425v-.869a7.646,7.646,0,0,0-2.679-.487c-2,0-3.108.9-3.108,2.329v.07c0,1.286,1,2.051,2.393,2.051,2,0,3.394-1.182,3.394-3.094" fill="#fff"/><path d="M583.646,321.819h6.787v2.573a7.144,7.144,0,0,1,5.75-2.99,5.953,5.953,0,0,1,5.571,3.059,8.051,8.051,0,0,1,6.465-3.059c4.143,0,6.607,2.469,6.607,6.884v12.343h-6.785V330.407c0-2.086-1.036-3.164-2.644-3.164s-2.785,1.078-2.785,3.164v10.222h-6.75V330.407c0-2.086-1.072-3.164-2.679-3.164s-2.75,1.078-2.75,3.164v10.222h-6.787Z" fill="#fff"/><path d="M618.332,321.819h6.786v2.5a7.15,7.15,0,0,1,5.857-2.921c4.572,0,8.572,3.72,8.572,9.736v.07c0,6.119-3.964,9.839-8.536,9.839a7.378,7.378,0,0,1-5.893-2.712v7.858h-6.786Zm14.572,9.422v-.069a4.071,4.071,0,0,0-3.965-4.277,4.028,4.028,0,0,0-3.964,4.277v.069a3.976,3.976,0,1,0,7.929,0" fill="#fff"/><path d="M641.729,331.311v-.07c0-5.389,4.5-9.839,10.677-9.839s10.644,4.415,10.644,9.77v.069c0,5.39-4.536,9.84-10.714,9.84-6.143,0-10.607-4.381-10.607-9.77m14.75,0v-.07a4.143,4.143,0,0,0-4.143-4.276,3.977,3.977,0,0,0-4.037,4.207v.069a4.126,4.126,0,0,0,4.107,4.242,4.016,4.016,0,0,0,4.073-4.172" fill="#fff"/><path d="M535.152,347.3h7.715l5.679,15.4,5.714-15.4h7.572l-10.143,24.512H545.26Z" fill="#fff"/><path d="M560.442,362.322v-.07a9.576,9.576,0,0,1,9.75-9.84c6.644,0,9.716,4.764,9.716,10.292,0,.417,0,.9-.036,1.356h-12.93a3.917,3.917,0,0,0,4.179,3.094,5.664,5.664,0,0,0,4.286-1.912l3.75,3.025a10.057,10.057,0,0,1-8.357,3.825c-6.072,0-10.358-3.964-10.358-9.77m13.144-1.635c-.25-2.086-1.536-3.407-3.394-3.407-1.821,0-2.964,1.321-3.356,3.407Z" fill="#fff"/><path d="M582.839,352.829h6.786v3.79c1.107-2.538,2.858-4.242,6.108-4.1v6.954h-.572c-3.572,0-5.536,1.947-5.536,6.293v5.876h-6.786Z" fill="#fff"/><path d="M597.055,362.322v-.071c0-6.118,3.965-9.84,8.537-9.84a7.383,7.383,0,0,1,5.892,2.713v-8.866h6.787v25.381h-6.787v-2.5a7.144,7.144,0,0,1-5.857,2.922c-4.571,0-8.572-3.72-8.572-9.735m14.573-.071v-.068a4.027,4.027,0,0,0-3.965-4.277,4.071,4.071,0,0,0-3.965,4.277v.068a4.072,4.072,0,0,0,3.965,4.278,4.028,4.028,0,0,0,3.965-4.278" fill="#fff"/><path d="M621.166,362.322v-.07a9.577,9.577,0,0,1,9.751-9.84c6.643,0,9.715,4.764,9.715,10.292,0,.417,0,.9-.036,1.356H627.667a3.917,3.917,0,0,0,4.179,3.094,5.664,5.664,0,0,0,4.286-1.912l3.749,3.025a10.057,10.057,0,0,1-8.357,3.825c-6.072,0-10.358-3.964-10.358-9.77m13.144-1.635c-.25-2.086-1.535-3.407-3.393-3.407-1.822,0-2.964,1.321-3.357,3.407Z" fill="#fff"/><path d="M566.386,239.647a20.015,20.015,0,1,1,31.754-22.73l22.583-9.552a44.536,44.536,0,1,0-75.892,45.028,51.513,51.513,0,0,1,16.855-11.1q2.319-.94,4.7-1.649" fill="#fff"/><path d="M547.412,255.572h0a48.165,48.165,0,0,0,67.842.269l-.269-.269a47.781,47.781,0,0,0-67.573,0" fill="#fff"/></g></svg>