<svg xmlns="http://www.w3.org/2000/svg" xmlns:xlink="http://www.w3.org/1999/xlink" width="32.024" height="24" viewBox="0 0 32.024 24"><defs><clipPath id="a"><rect width="32.024" height="24" fill="#8255a5"/></clipPath></defs><g clip-path="url(#a)"><path d="M0,70.125V53.613c.107.06.219.113.321.181q6.485,4.321,12.967,8.646a4.731,4.731,0,0,0,2.4.8,5.049,5.049,0,0,0,3.187-.88q6.422-4.3,12.861-8.578c.084-.056.17-.108.288-.182v.377q0,7.722,0,15.444c0,.1,0,.209,0,.313A3.408,3.408,0,0,1,30.2,72.7a3.651,3.651,0,0,1-1.835.421q-12.349,0-24.7,0a6.024,6.024,0,0,1-.622-.041A3.429,3.429,0,0,1,.057,70.258.611.611,0,0,0,0,70.125" transform="translate(0 -49.118)" fill="#8255a5"/><path d="M2.249,2.321A3.429,3.429,0,0,1,5.038.05,4.24,4.24,0,0,1,5.691,0Q18.072,0,30.454,0a3.7,3.7,0,0,1,1.913.479,3.438,3.438,0,0,1,1.522,1.846c-.072.053-.136.1-.2.15q-6.967,4.644-13.936,9.284a3.011,3.011,0,0,1-3.064.178,2.266,2.266,0,0,1-.32-.194L2.489,2.491c-.077-.051-.151-.107-.24-.171" transform="translate(-2.061 0)" fill="#8255a5"/></g></svg>