<svg xmlns="http://www.w3.org/2000/svg" width="40.624" height="54.637" viewBox="0 0 40.624 54.637"><g transform="translate(0 0)"><path d="M20.312,54.637h0c-.051-.059-5.163-5.944-10.155-13.04A94.891,94.891,0,0,1,3.174,30.278C1.068,26.129,0,22.735,0,20.192A20.069,20.069,0,0,1,5.949,5.914a20.374,20.374,0,0,1,28.726,0,20.069,20.069,0,0,1,5.949,14.277c0,2.544-1.068,5.937-3.174,10.087A94.891,94.891,0,0,1,30.468,41.6c-4.993,7.1-10.1,12.981-10.155,13.04Zm0-45.135A10.734,10.734,0,0,0,9.559,20.192a10.589,10.589,0,0,0,3.149,7.559,10.8,10.8,0,0,0,15.208,0,10.589,10.589,0,0,0,3.149-7.559A10.734,10.734,0,0,0,20.312,9.5Z" transform="translate(0 0)" fill="#fff"/></g></svg>