<svg xmlns="http://www.w3.org/2000/svg" width="34.195" height="34.195" viewBox="0 0 34.195 34.195"><path d="M17.1,3.04a52.425,52.425,0,0,1,6.839.19,8.811,8.811,0,0,1,3.23.57,6.672,6.672,0,0,1,3.23,3.23,8.811,8.811,0,0,1,.57,3.23c0,1.71.19,2.28.19,6.839a52.425,52.425,0,0,1-.19,6.839,8.811,8.811,0,0,1-.57,3.23,6.672,6.672,0,0,1-3.23,3.23,8.811,8.811,0,0,1-3.23.57c-1.71,0-2.28.19-6.839.19a52.425,52.425,0,0,1-6.839-.19,8.811,8.811,0,0,1-3.23-.57,6.672,6.672,0,0,1-3.23-3.23,8.811,8.811,0,0,1-.57-3.23c0-1.71-.19-2.28-.19-6.839a52.425,52.425,0,0,1,.19-6.839,8.811,8.811,0,0,1,.57-3.23,6.823,6.823,0,0,1,1.33-1.9,3.212,3.212,0,0,1,1.9-1.33,8.811,8.811,0,0,1,3.23-.57A52.425,52.425,0,0,1,17.1,3.04M17.1,0a56.132,56.132,0,0,0-7.029.19A11.728,11.728,0,0,0,5.889.95a7.437,7.437,0,0,0-3.04,1.9,7.437,7.437,0,0,0-1.9,3.04,8.656,8.656,0,0,0-.76,4.179A56.132,56.132,0,0,0,0,17.1a56.132,56.132,0,0,0,.19,7.029,11.728,11.728,0,0,0,.76,4.179,7.437,7.437,0,0,0,1.9,3.04,7.437,7.437,0,0,0,3.04,1.9,11.728,11.728,0,0,0,4.179.76,56.13,56.13,0,0,0,7.029.19,56.13,56.13,0,0,0,7.029-.19,11.728,11.728,0,0,0,4.179-.76,7.97,7.97,0,0,0,4.939-4.939,11.728,11.728,0,0,0,.76-4.179c0-1.9.19-2.47.19-7.029a56.13,56.13,0,0,0-.19-7.029,11.728,11.728,0,0,0-.76-4.179,7.437,7.437,0,0,0-1.9-3.04,7.437,7.437,0,0,0-3.04-1.9A11.728,11.728,0,0,0,24.127.19,56.132,56.132,0,0,0,17.1,0m0,8.359A8.6,8.6,0,0,0,8.359,17.1,8.739,8.739,0,1,0,17.1,8.359m0,14.438a5.6,5.6,0,0,1-5.7-5.7,5.6,5.6,0,0,1,5.7-5.7,5.6,5.6,0,0,1,5.7,5.7,5.6,5.6,0,0,1-5.7,5.7M26.216,5.889a2.09,2.09,0,1,0,2.09,2.09,2.108,2.108,0,0,0-2.09-2.09" fill="#fff" fill-rule="evenodd"/></svg>