<?xml version="1.0" encoding="utf-8"?>
<!-- Generator: Adobe Illustrator 26.3.1, SVG Export Plug-In . SVG Version: 6.00 Build 0)  -->
<svg version="1.1" id="Capa_1" xmlns="http://www.w3.org/2000/svg" xmlns:xlink="http://www.w3.org/1999/xlink" x="0px" y="0px"
	 viewBox="0 0 38 38" style="enable-background:new 0 0 38 38;" xml:space="preserve">
<style type="text/css">
	.st0{fill:#FFFFFF;}
</style>
<g id="XMLID_1434_">
	<g id="XMLID_1436_">
		<rect id="XMLID_1438_" x="0.8" y="12.7" class="st0" width="7.8" height="25.3"/>
		<path id="XMLID_1437_" class="st0" d="M4.6,9.3c2.6,0,4.6-2.1,4.6-4.7C9.3,2.1,7.2,0,4.6,0C2.1,0,0,2.1,0,4.7
			C0,7.2,2.1,9.3,4.6,9.3z"/>
	</g>
	<path id="XMLID_1435_" class="st0" d="M21.1,24.7c0-3.6,1.6-5.7,4.8-5.7c2.9,0,4.3,2,4.3,5.7c0,3.7,0,13.3,0,13.3H38
		c0,0,0-9.3,0-16c0-6.8-3.8-10.1-9.2-10.1c-5.4,0-7.6,4.2-7.6,4.2v-3.4h-7.5V38h7.5C21.1,38,21.1,28.6,21.1,24.7z"/>
</g>
</svg>
