<svg xmlns="http://www.w3.org/2000/svg" xmlns:xlink="http://www.w3.org/1999/xlink" width="30" height="34.195" viewBox="0 0 30 34.195"><defs><clipPath id="a"><rect width="30" height="34.195" fill="#fff"/></clipPath></defs><g clip-path="url(#a)"><path d="M0,191.91c.034-.215.072-.43.1-.645a9.975,9.975,0,0,1,1.63-4.228,14.992,14.992,0,0,1,1.056-1.383c.961-1.124,1.94-2.227,2.911-3.34a1.326,1.326,0,0,1,.637-.448,1.092,1.092,0,0,1,1.22.493,1.456,1.456,0,0,1,.069,1.473,2.364,2.364,0,0,1-.3.41q-1.444,1.66-2.894,3.312a8.72,8.72,0,0,0-1.472,2.271,6.943,6.943,0,0,0-.615,2.887,5.813,5.813,0,0,0,1.117,3.433,4.987,4.987,0,0,0,2.519,1.909A4.389,4.389,0,0,0,9,197.9a6.5,6.5,0,0,0,2.486-1.772q2.3-2.59,4.576-5.219a7.484,7.484,0,0,0,1.708-3.4,5.993,5.993,0,0,0-1.207-5.214,5.07,5.07,0,0,0-1.16-1.061,1.338,1.338,0,0,1-.6-.866A1.364,1.364,0,0,1,15.218,179a.992.992,0,0,1,1.208-.172,2.66,2.66,0,0,1,.379.252,8.443,8.443,0,0,1,3.39,5.854,9.386,9.386,0,0,1-.546,4.6,10.315,10.315,0,0,1-1.852,3.177c-1.36,1.581-2.738,3.143-4.107,4.714a13.078,13.078,0,0,1-2.055,1.976A7.8,7.8,0,0,1,8.3,200.852c-.132.023-.263.051-.394.077H6.62a.457.457,0,0,0-.128-.056,5.45,5.45,0,0,1-1.367-.328,7.332,7.332,0,0,1-3.412-2.63,8.623,8.623,0,0,1-1.665-4.391A.656.656,0,0,0,0,193.38v-1.47" transform="translate(0 -166.734)" fill="#fff"/><path d="M165.652,14.813a10.126,10.126,0,0,1,1.434-5.133,12.459,12.459,0,0,1,1.387-1.893q2.005-2.3,4.017-4.582a10.286,10.286,0,0,1,2.748-2.3,6.99,6.99,0,0,1,2.595-.863,6.706,6.706,0,0,1,6.33,2.9,8.476,8.476,0,0,1,1.689,4.181,9.562,9.562,0,0,1-.544,4.569,10.267,10.267,0,0,1-1.808,3.132c-1.1,1.3-2.219,2.57-3.336,3.846a1.063,1.063,0,0,1-1.422.261,1.433,1.433,0,0,1-.381-1.954,2.469,2.469,0,0,1,.233-.3q1.456-1.669,2.915-3.336a8.626,8.626,0,0,0,1.528-2.428,6.858,6.858,0,0,0,.538-2.474,5.847,5.847,0,0,0-1.368-3.99,4.752,4.752,0,0,0-2.634-1.685,4.5,4.5,0,0,0-2.867.339,6.568,6.568,0,0,0-2.268,1.677q-2.3,2.594-4.576,5.22a7.515,7.515,0,0,0-1.692,3.378,5.933,5.933,0,0,0,1.378,5.457,5.52,5.52,0,0,0,1.025.883,1.343,1.343,0,0,1,.559.9,1.367,1.367,0,0,1-.838,1.548,1.023,1.023,0,0,1-.9-.139,8.385,8.385,0,0,1-3.568-5.493,8.449,8.449,0,0,1-.169-1.72" transform="translate(-155.927 0.001)" fill="#fff"/></g></svg>