<svg xmlns="http://www.w3.org/2000/svg" xmlns:xlink="http://www.w3.org/1999/xlink" width="43.672" height="43.672" viewBox="0 0 43.672 43.672"><defs><clipPath id="a"><rect width="43.672" height="43.672" fill="#8255a5"/></clipPath></defs><g transform="translate(-0.001)"><g transform="translate(0.001 0)" clip-path="url(#a)"><path d="M24.694,17.045a5.134,5.134,0,1,1-7.261,0,5.134,5.134,0,0,1,7.261,0" transform="translate(-5.506 -5.372)" fill="#8255a5"/><path d="M41.873,19.3A11,11,0,0,0,47.111,0Z" transform="translate(-14.474 0)" fill="#8255a5"/><path d="M46.04,26.691A11,11,0,0,0,58.359,10.935Z" transform="translate(-15.914 -3.78)" fill="#8255a5"/><path d="M19.3,41.873A11,11,0,0,1,0,47.111Z" transform="translate(0 -14.474)" fill="#8255a5"/><path d="M26.691,46.04A11,11,0,0,1,10.935,58.359Z" transform="translate(-3.78 -15.914)" fill="#8255a5"/><path d="M31.519,21.823l-9.308,9.308L37.477,43.044,43.2,37.316Z" transform="translate(-7.678 -7.543)" fill="#8255a5"/><path d="M47.371,52.9l8.648,6.749,3.7-3.7L53.1,47.173Z" transform="translate(-16.374 -16.306)" fill="#8255a5"/></g></g></svg>