<svg xmlns="http://www.w3.org/2000/svg" width="414" height="319.392" viewBox="0 0 414 319.392">
  <g id="F-C-5" transform="translate(-538 -9805.613)">
    <path id="Trazado_1112" data-name="Trazado 1112" d="M207,0C321.323,0,414,92.677,414,207c-54.848.015-349.74-.01-414,0C0,92.677,92.677,0,207,0Z" transform="translate(538 9918)" fill="#00446d"/>
    <g id="Grupo_1021" data-name="Grupo 1021" transform="translate(9624.947 1400.613)">
      <ellipse id="Elipse_112" data-name="Elipse 112" cx="126.887" cy="126.887" rx="126.887" ry="126.887" transform="translate(-9009.334 8405)" fill="#f9d938"/>
      <ellipse id="Elipse_121" data-name="Elipse 121" cx="104.109" cy="104.109" rx="104.109" ry="104.109" transform="translate(-8986.556 8427.778)" fill="#fff"/>
      <path id="Trazado_1849" data-name="Trazado 1849" d="M8.628-5.294h10.04V-42.352H11.256L.48-39.3l1.945,7.885,6.2-1.472Zm15.349,0H53.1V-13.6H37.906l6.308-4.415c5.467-3.942,8.516-6.991,8.516-12.878V-31c0-6.939-5.572-11.722-13.562-11.722-7.1,0-11.039,2.839-14.981,7.885l6.886,5.73c2.891-3.312,4.836-4.783,7.307-4.783,2.523,0,4.153,1.419,4.153,3.785,0,2.26-1.367,3.942-4.783,6.623L23.976-12.968Z" transform="translate(-8909.236 8484.761)"/>
      <path id="Trazado_1850" data-name="Trazado 1850" d="M18.229-4.573c8.042,0,14.613-5.046,14.613-13.246v-.105c0-7.359-5.677-11.459-12.142-11.459a12.229,12.229,0,0,0-7.937,2.838c.263-2.944,1.63-7.885,6.939-7.885a11.569,11.569,0,0,1,7.307,2.786l4.783-7.149A18.689,18.689,0,0,0,19.544-42.84C8.032-42.84,2.46-34.114,2.46-22.655v.105c0,6.886,1.787,11.039,4.521,13.772C9.661-6.1,12.973-4.573,18.229-4.573Zm-.421-7.937c-3.206,0-5.2-2.1-5.2-4.783V-17.4c0-2.681,1.892-4.678,5.1-4.678s5.256,2.05,5.256,4.731v.105C22.96-14.56,21.015-12.51,17.809-12.51Z" transform="translate(-8900.098 8626.7)"/>
      <path id="Trazado_1851" data-name="Trazado 1851" d="M16.744-4.469c8.148,0,14.193-4.836,14.193-12.248v-.105c0-6.308-4.258-9.2-9.514-10.355L30.2-34.746V-42H3.656v8.253H17.69L9.28-26.125,10.7-20.816h4.31C18.952-20.816,21-19.4,21-17.032v.105c0,2.26-1.735,3.732-4.678,3.732-3.417,0-6.1-1.524-8.778-4.205L1.08-10.987C4.707-6.992,9.6-4.469,16.744-4.469Z" transform="translate(-8825.198 8555.121)"/>
      <path id="Trazado_1848" data-name="Trazado 1848" d="M15.774-13.036a11.894,11.894,0,0,1-7.885-2.944L3.106-8.936A19.709,19.709,0,0,0,15.984-4.573c10.986,0,16.978-8.253,16.978-20.237v-.105c0-6.781-1.735-10.986-4.415-13.667-2.786-2.786-5.992-4.258-11.3-4.258-8.41,0-14.666,5.2-14.666,13.351v.105c0,7.2,5.2,11.669,12.353,11.669a11.029,11.029,0,0,0,7.832-3C22.5-17.767,21.135-13.036,15.774-13.036Zm1.945-11.985c-3.206,0-5.256-2.05-5.256-4.836v-.105a4.788,4.788,0,0,1,5.151-4.994,4.915,4.915,0,0,1,5.256,5.046v.105C22.87-27.123,20.925-25.021,17.719-25.021Z" transform="translate(-8979.574 8555.225)"/>
      <path id="Unión_16" data-name="Unión 16" d="M.141,53.291,0,53.328,3.029,0l7.94,44.129,27.437,9.2Z" transform="translate(-8888.088 8490.925)" stroke="rgba(0,0,0,0)" stroke-width="1"/>
    </g>
  </g>
</svg>
