<svg width="502" height="890" viewBox="0 0 502 890" fill="none" xmlns="http://www.w3.org/2000/svg">
<path d="M307.885 148.217H193.965L159.482 889.333H342.37L307.885 148.217Z" fill="#6B645F"/>
<path d="M501.851 638.409C501.851 499.827 389.507 387.483 250.925 387.483C112.343 387.483 0 499.829 0 638.409H501.851Z" fill="#2FAD62"/>
<path d="M460.139 372.456C460.139 256.911 366.47 163.242 250.923 163.242C135.376 163.242 41.7109 256.911 41.7109 372.456H460.139Z" fill="#C6D33A"/>
<path d="M398.143 148.218C398.193 128.853 394.422 109.668 387.047 91.7623C379.671 73.8567 368.835 57.5822 355.159 43.8711C341.484 30.16 325.238 19.2817 307.352 11.8593C289.465 4.43685 270.29 0.616211 250.925 0.616211C231.56 0.616211 212.385 4.43685 194.499 11.8593C176.612 19.2817 160.366 30.16 146.691 43.8711C133.015 57.5822 122.179 73.8567 114.803 91.7623C107.428 109.668 103.657 128.853 103.708 148.218H398.143Z" fill="#2FAD62"/>
</svg>
