<svg xmlns="http://www.w3.org/2000/svg" width="414" height="288.005" viewBox="0 0 414 288.005">
  <g id="F-C-7" transform="translate(-1366 -10304)">
    <path id="Trazado_1114" data-name="Trazado 1114" d="M207,0C321.323,0,414,92.677,414,207c-54.848.015-349.74-.01-414,0C0,92.677,92.677,0,207,0Z" transform="translate(1366 10385)" fill="#00446d"/>
    <g id="Grupo_29" data-name="Grupo 29" transform="translate(1671.89 9785.628)">
      <path id="Trazado_1107" data-name="Trazado 1107" d="M-67.436,572.956A54.584,54.584,0,0,1-122.02,627.54a54.586,54.586,0,0,1-54.586-54.584,54.586,54.586,0,0,1,54.586-54.584,54.584,54.584,0,0,1,54.584,54.584" transform="translate(22.262 0)" fill="#4da2e2"/>
      <rect id="Rect치ngulo_138" data-name="Rect치ngulo 138" width="88.421" height="88.421" transform="translate(-199.889 626.096)" fill="#d95a37"/>
      <rect id="Rect치ngulo_139" data-name="Rect치ngulo 139" width="88.421" height="88.421" transform="translate(-87.143 626.096)" fill="#2fad62"/>
      <path id="Trazado_1108" data-name="Trazado 1108" d="M-140.852,527.594h17.007l27.1,64.116h-18.918l-4.638-11.365h-24.557L-149.4,591.71h-18.556Zm15.461,39.015-7.095-18.1-7.185,18.1Z" transform="translate(30.532 8.817)"/>
      <path id="Trazado_1109" data-name="Trazado 1109" d="M-190.307,580.287h32.652c8,0,13.64,2,17.371,5.728a13.971,13.971,0,0,1,4.092,10.277v.182c0,7.367-4.182,11.733-9.822,14.188,7.731,2.547,12.641,6.913,12.641,15.553v.182c0,10.913-8.912,17.552-24.1,17.552h-32.832Zm28.286,25.373c5.364,0,8.368-1.819,8.368-5.548v-.182c0-3.456-2.731-5.458-8-5.458h-11.461V605.66Zm2.547,24.1c5.366,0,8.456-2.091,8.456-5.821v-.182c0-3.455-2.727-5.73-8.64-5.73h-13.46v11.733Z" transform="translate(9.162 59.199)"/>
      <path id="Trazado_1110" data-name="Trazado 1110" d="M-134.781,612.923v-.182c0-18.554,14.28-33.106,33.559-33.106,13.006,0,21.373,5.458,27.012,13.278l-13.278,10.278c-3.64-4.548-7.823-7.457-13.916-7.457-8.912,0-15.187,7.549-15.187,16.825v.182c0,9.55,6.275,17.007,15.187,17.007,6.639,0,10.549-3.091,14.37-7.731l13.278,9.46c-6,8.276-14.1,14.37-28.194,14.37-18.19,0-32.832-13.916-32.832-32.924" transform="translate(62.252 58.576)"/>
    </g>
  </g>
</svg>
