<svg xmlns="http://www.w3.org/2000/svg" width="414" height="267.006" viewBox="0 0 414 267.006">
  <g id="F-C-6" transform="translate(-538 -10324.999)">
    <path id="Trazado_1113" data-name="Trazado 1113" d="M207,0C321.323,0,414,92.677,414,207c-54.848.015-349.74-.01-414,0C0,92.677,92.677,0,207,0Z" transform="translate(538 10385)" fill="#00446d"/>
    <g id="Grupo_1039" data-name="Grupo 1039" transform="translate(6227 1079)">
      <path id="Trazado_1863" data-name="Trazado 1863" d="M120,240A120,120,0,0,1,0,120H0A120,120,0,0,1,120,0Z" transform="translate(-5603 9366) rotate(-90)" fill="#2fad62"/>
      <path id="Trazado_1864" data-name="Trazado 1864" d="M108.888,217.774A108.885,108.885,0,0,1,0,108.889H0A108.886,108.886,0,0,1,108.888,0Z" transform="translate(-5591.844 9354.887) rotate(-90)" fill="#fff"/>
      <path id="Trazado_1865" data-name="Trazado 1865" d="M97.536,195.071A97.534,97.534,0,0,1,0,97.537H0A97.534,97.534,0,0,1,97.536,0Z" transform="translate(-5580.688 9343.535) rotate(-90)" fill="#ef5a37"/>
      <g id="Grupo_1033" data-name="Grupo 1033" transform="translate(-5542.438 9258.886)">
        <path id="Trazado_1846" data-name="Trazado 1846" d="M0,16.94V0H16.889A16.941,16.941,0,0,1,0,16.94" transform="translate(11.979 0) rotate(45)"/>
        <path id="Trazado_1854" data-name="Trazado 1854" d="M0,16.94V0H16.889A16.941,16.941,0,0,1,0,16.94" transform="translate(35.899 23.921) rotate(45)"/>
        <path id="Trazado_1855" data-name="Trazado 1855" d="M0,16.94V0H16.889A16.941,16.941,0,0,1,0,16.94" transform="translate(62.441 0) rotate(45)"/>
        <path id="Trazado_1858" data-name="Trazado 1858" d="M0,16.94V0H16.889A16.941,16.941,0,0,1,0,16.94" transform="translate(62.441 47.841) rotate(45)"/>
        <path id="Trazado_1857" data-name="Trazado 1857" d="M0,16.94V0H16.889A16.941,16.941,0,0,1,0,16.94" transform="translate(106.724 0) rotate(45)"/>
        <path id="Trazado_1856" data-name="Trazado 1856" d="M0,16.94V0H16.889A16.941,16.941,0,0,1,0,16.94" transform="translate(89.086 23.921) rotate(45)"/>
      </g>
    </g>
  </g>
</svg>
