<svg width="184" height="183" viewBox="0 0 184 183" fill="none" xmlns="http://www.w3.org/2000/svg">
<path d="M92 182.996C142.442 182.996 183.334 142.104 183.334 91.6621C183.334 41.2197 142.442 0.328125 92 0.328125C41.5576 0.328125 0.666016 41.2197 0.666016 91.6621C0.666016 142.104 41.5576 182.996 92 182.996Z" fill="#8CAEF9"/>
<path d="M58.7023 68.2611C79.2683 68.2611 92.0023 51.9611 92.0023 51.9611C92.0023 51.9611 79.2703 35.6611 58.7023 35.6611C38.1343 35.6611 25.4023 51.9611 25.4023 51.9611C25.4023 51.9611 38.1343 68.2611 58.7023 68.2611Z" fill="white"/>
<path d="M42.4014 61.908C42.4045 59.6455 42.8787 57.4084 43.7937 55.3391C44.7086 53.2698 46.0444 51.4137 47.7159 49.8889C49.3874 48.364 51.358 47.2038 53.5024 46.4822C55.6467 45.7605 57.9178 45.4933 60.1712 45.6973C62.4245 45.9013 64.6106 46.5722 66.5905 47.6672C68.5704 48.7623 70.3006 50.2575 71.671 52.0578C73.0415 53.8581 74.0221 55.9239 74.5505 58.1238C75.079 60.3238 75.1436 62.6097 74.7404 64.836C69.6943 67.0917 64.2291 68.2576 58.7019 68.2576C53.1746 68.2576 47.7094 67.0917 42.6634 64.836C42.4882 63.8699 42.4005 62.8899 42.4014 61.908Z" fill="#F9D938"/>
<path d="M52.3584 57.2972C52.3574 56.0421 52.7287 54.8149 53.4253 53.7708C54.1219 52.7267 55.1125 51.9127 56.2718 51.4317C57.4311 50.9507 58.7071 50.8243 59.9382 51.0686C61.1693 51.3128 62.3004 51.9167 63.1882 52.8039C64.0761 53.691 64.6809 54.8216 64.9261 56.0525C65.1713 57.2835 65.046 58.5595 64.5659 59.7192C64.0858 60.8789 63.2726 61.8701 62.229 62.5675C61.1855 63.265 59.9585 63.6372 58.7034 63.6372C57.0208 63.6372 55.4071 62.9689 54.2172 61.7792C53.0273 60.5895 52.3587 58.9759 52.3584 57.2933" fill="black"/>
<path d="M125.295 68.2611C145.861 68.2611 158.595 51.9611 158.595 51.9611C158.595 51.9611 145.863 35.6611 125.295 35.6611C104.727 35.6611 91.9951 51.9611 91.9951 51.9611C91.9951 51.9611 104.727 68.2611 125.295 68.2611Z" fill="white"/>
<path d="M108.997 61.908C109 59.6455 109.474 57.4084 110.389 55.3391C111.304 53.2698 112.64 51.4137 114.312 49.8889C115.983 48.364 117.954 47.2038 120.098 46.4822C122.242 45.7605 124.514 45.4933 126.767 45.6973C129.02 45.9013 131.206 46.5722 133.186 47.6672C135.166 48.7623 136.896 50.2575 138.267 52.0578C139.637 53.8581 140.618 55.9239 141.146 58.1238C141.675 60.3238 141.739 62.6097 141.336 64.836C136.29 67.0917 130.825 68.2576 125.298 68.2576C119.77 68.2576 114.305 67.0917 109.259 64.836C109.084 63.8699 108.996 62.8899 108.997 61.908Z" fill="#F9D938"/>
<path d="M118.951 57.2972C118.95 56.0422 119.321 54.815 120.018 53.771C120.714 52.727 121.705 51.913 122.864 51.4319C124.023 50.9508 125.299 50.8243 126.53 51.0684C127.761 51.3125 128.892 51.9163 129.78 52.8032C130.668 53.6902 131.273 54.8205 131.519 56.0513C131.764 57.2822 131.639 58.5581 131.159 59.7178C130.679 60.8776 129.867 61.869 128.823 62.5667C127.78 63.2643 126.553 63.6369 125.298 63.6373C123.616 63.6373 122.002 62.9689 120.812 61.7792C119.622 60.5895 118.953 58.9759 118.953 57.2933" fill="black"/>
<path d="M92.1711 51.96L125.295 121.393H91.9951L92.1711 51.96Z" fill="#8255A5"/>
<path d="M92.0172 121.394V147.666C74.4316 147.664 57.5638 140.691 45.11 128.275C32.6561 115.86 25.6317 99.0132 25.5762 81.4277H51.9272C51.9626 92.0381 56.2019 102.202 63.7163 109.693C71.2307 117.184 81.4077 121.391 92.0182 121.394" fill="#00446D"/>
<path d="M38.7452 68.2588C36.1405 68.2586 33.5941 69.0308 31.4282 70.4778C29.2623 71.9248 27.5741 73.9815 26.5771 76.3879C25.5801 78.7944 25.3191 81.4424 25.8271 83.9971C26.3351 86.5519 27.5892 88.8987 29.4309 90.7407C31.2727 92.5827 33.6192 93.8372 36.1739 94.3455C38.7286 94.8539 41.3767 94.5933 43.7833 93.5967C46.1898 92.6001 48.2468 90.9121 49.6942 88.7465C51.1415 86.5808 51.914 84.0346 51.9142 81.4298C51.9144 79.7003 51.5738 77.9877 50.9121 76.3898C50.2504 74.7919 49.2804 73.3399 48.0576 72.1169C46.8347 70.8938 45.3829 69.9236 43.7851 69.2617C42.1873 68.5997 40.4747 68.2589 38.7452 68.2588Z" fill="#FFA8B4"/>
</svg>
