<svg width="988" height="461" viewBox="0 0 988 461" fill="none" xmlns="http://www.w3.org/2000/svg">
<path d="M162.994 0.440918H0.919922V421.71H162.994V0.440918Z" fill="#F9D938"/>
<path d="M0.919922 421.709C42.6929 473.163 121.22 473.163 162.994 421.709H0.919922Z" fill="#EF5A37"/>
<path d="M133.224 0.440918H81.9561V421.71H133.224V0.440918Z" fill="black"/>
<path d="M987.3 146.307H825.226V460.335H987.3V146.307Z" fill="#F9D938"/>
<path d="M957.532 146.307H906.264V460.335H957.532V146.307Z" fill="black"/>
<path d="M968.827 107.696C955.154 94.7601 924.873 72.3401 906.267 72.3401C887.661 72.3401 857.373 94.7601 843.698 107.696L898.219 6.10612C901.819 -1.44488 910.719 -1.44488 914.319 6.10612L968.827 107.696Z" fill="black"/>
<path d="M987.302 146.308L976.459 121.998H976.433C962.42 90.3789 936.254 69.0869 906.265 69.0869C876.276 69.0869 850.11 90.3789 836.097 121.998H836.072L825.227 146.308H987.302Z" fill="#6B645F"/>
<path d="M954.184 89.5609C940.763 76.6869 924.193 69.085 906.264 69.085C888.335 69.085 871.782 76.685 858.364 89.542L954.184 89.5609Z" fill="white"/>
<path d="M775.37 0.234863H212.851L163.108 460.335H825.114L775.37 0.234863Z" fill="#805590"/>
<path d="M737.411 39.2588H250.811L224.946 325.059H763.276L737.411 39.2588Z" fill="white"/>
<path d="M717.448 421.678H163.106V460.335H717.448V421.678Z" fill="#4DA2E2"/>
<path d="M502.54 401.897H307.675V421.675H502.54V401.897Z" fill="white"/>
<path d="M625.051 401.897H578.292V421.675H625.051V401.897Z" fill="white"/>
<path d="M684.868 401.897H638.109V421.675H684.868V401.897Z" fill="white"/>
<path d="M565.236 401.897H518.477V421.675H565.236V401.897Z" fill="white"/>
<path d="M230.579 401.897H183.82V421.675H230.579V401.897Z" fill="white"/>
<path d="M290.394 401.897H243.635V421.675H290.394V401.897Z" fill="white"/>
<path d="M825.115 460.333C825.115 442.127 817.883 424.667 805.01 411.794C792.136 398.921 774.676 391.688 756.471 391.688C738.265 391.688 720.805 398.921 707.932 411.794C695.058 424.667 687.826 442.127 687.826 460.333" fill="#FFA8B4"/>
</svg>
