<svg width="89" height="48" viewBox="0 0 89 48" fill="none" xmlns="http://www.w3.org/2000/svg">
<path d="M1 33V14C1.00089 11.6978 1.56908 9.4315 2.6543 7.40112C3.73952 5.37074 5.30849 3.63897 7.22217 2.35913C8.75117 1.33846 10.466 0.628527 12.269 0.27002C13.1683 0.0902719 14.083 -0.000187177 15 2.90781e-07H75C76.8382 0.00118986 78.6585 0.363539 80.3572 1.06616C82.0564 1.76868 83.5999 2.80002 84.8992 4.10107C87.523 6.72785 88.9974 10.2885 88.999 14.0012V33.0012C88.9973 34.8396 88.6356 36.6598 87.9341 38.3591C87.5825 39.206 87.1491 40.0164 86.6401 40.7791C86.1311 41.5423 85.5477 42.2532 84.8982 42.9011C83.5981 44.2011 82.0546 45.2323 80.356 45.9358C78.6573 46.6393 76.8366 47.0014 74.998 47.0012H14.998C11.285 47.0012 7.72414 45.5261 5.09863 42.9006C2.47312 40.2751 0.998047 36.7143 0.998047 33.0012" fill="white"/>
<path d="M63.8186 23.499L32.1797 39.8491V7.14917L63.8186 23.499Z" fill="#8255A5"/>
</svg>
