<svg xmlns="http://www.w3.org/2000/svg" width="829.826" height="853.128" viewBox="0 0 829.826 853.128"><g transform="translate(-140.118 -1235)"><path d="M1189.965,104.526c116.011,0,210.055,97.212,210.055,217.127s-94.044,217.129-210.055,217.129Z" transform="translate(-640.133 1130.474)" fill="#8255a5"/><path d="M1513.01,104.526c-116.011,0-210.056,97.212-210.056,217.127S1397,538.782,1513.01,538.782Z" transform="translate(-543.067 1130.474)" fill="#f9d938"/><path d="M969.577,309.383c0,113.139,91.717,204.855,204.857,204.855s204.856-91.717,204.856-204.855-91.717-204.856-204.856-204.856S969.577,196.244,969.577,309.383" transform="translate(-829.459 1130.475)" fill="#fff"/><path d="M1242.72,343.042v136.57H1106.15v136.57H969.577V752.754H1379.29V343.042Z" transform="translate(-829.459 1335.373)" fill="#00446d"/></g></svg>