<svg xmlns="http://www.w3.org/2000/svg" width="414" height="378.83" viewBox="0 0 414 378.83"><g transform="translate(-1002.396 -70.654)"><path d="M1385.024,70.655H1033.485L1002.4,358.19h413.716Z" transform="translate(0)" fill="#8255a5"/><path d="M1337.219,79.844h-304.1l-16.165,178.609h336.426Z" transform="translate(24.083 15.198)" fill="#fff"/><rect width="346.431" height="24.16" transform="translate(1002.396 334.027)" fill="#4da2e2"/><rect width="121.781" height="12.359" transform="translate(1092.742 321.671)" fill="#fff"/><rect width="29.221" height="12.359" transform="translate(1261.865 321.671)" fill="#fff"/><rect width="29.221" height="12.359" transform="translate(1299.246 321.671)" fill="#fff"/><rect width="29.221" height="12.359" transform="translate(1224.483 321.671)" fill="#fff"/><rect width="29.221" height="12.359" transform="translate(1015.341 321.671)" fill="#fff"/><rect width="29.221" height="12.359" transform="translate(1052.723 321.671)" fill="#fff"/><path d="M1211.758,205.736a42.9,42.9,0,1,0-85.8,0" transform="translate(204.354 152.452)" fill="#f9d938"/><rect width="414" height="91" transform="translate(1002.396 358.485)" fill="#00446d"/></g></svg>