<svg xmlns="http://www.w3.org/2000/svg" width="879.09" height="906.461" viewBox="0 0 879.09 906.461"><g transform="translate(-900.906 -184.436)"><path d="M1837.185,412.289c-1.293-283.894-432.8-283.726-434.034,0" transform="translate(-502.24 -10.837)"/><path d="M1403.15,242.3c1.292,283.894,432.8,283.726,434.033,0" transform="translate(-502.244 157.814)"/><path d="M1787.819,292.1V440.452H1639.47V588.806H1491.116V737.155h445.052V292.1Z" transform="translate(-156.174 353.742)" fill="#4da2e2"/><path d="M1730.071,570.976h147.243c0-205.229-166.1-371.77-371.237-372.387V346.277c123.8.439,223.994,100.893,223.994,224.7" transform="translate(-97.318 -14.153)" fill="#00446d"/><path d="M1491.117,271.563c1.658-97.024,145.981-97.01,147.624,0-1.658,97.02-145.98,97-147.624,0" transform="translate(-156.173 -13.318)" fill="#ef5a37"/><rect width="147.244" height="91.314" transform="translate(1632.752 555.826)" fill="#00446d"/><path d="M1669.939,630.853h147.245c0-205.224-166.1-371.77-371.244-372.387V406.154c123.807.439,224,100.893,224,224.7" transform="translate(-333.904 221.409)" fill="#00446d"/><path d="M1430.981,331.441c1.658-97.024,145.981-97.009,147.624.005-1.658,97.019-145.981,97-147.624-.005" transform="translate(-392.754 222.248)" fill="#ffa8b4"/><rect width="147.244" height="91.319" transform="translate(1336.033 851.261)" fill="#00446d"/></g></svg>