<svg xmlns="http://www.w3.org/2000/svg" xmlns:xlink="http://www.w3.org/1999/xlink" width="1363.999" height="653.11" viewBox="0 0 1363.999 653.11"><defs><clipPath id="a"><rect width="653.11" height="1363.999" fill="none"/></clipPath></defs><g transform="translate(1363.999) rotate(90)"><g clip-path="url(#a)"><path d="M652.939,451.187c0-180.294-146.159-326.461-326.461-326.461S.025,270.893.025,451.187Z" transform="translate(0.172 856.954)" fill="#4da2e2"/><path d="M652.939,409.709c0-180.294-146.159-326.461-326.461-326.461S.025,229.415.025,409.709Z" transform="translate(0.172 571.972)" fill="#ef5a37"/><path d="M0,326.555C0,506.9,146.2,653.11,326.555,653.11S653.11,506.9,653.11,326.555,506.9,0,326.555,0,0,146.2,0,326.555" transform="translate(0 0)"/><rect width="652.866" height="56.803" transform="translate(0.197 1307.197)" fill="#4da2e2"/></g></g></svg>