<svg xmlns="http://www.w3.org/2000/svg" width="414" height="267.006" viewBox="0 0 414 267.006"><g transform="translate(-538 -10324.999)"><path d="M207,0C321.323,0,414,92.677,414,207c-54.848.015-349.74-.01-414,0C0,92.677,92.677,0,207,0Z" transform="translate(538 10385)" fill="#00446d"/><g transform="translate(6227 1079)"><path d="M120,240A120,120,0,0,1,0,120H0A120,120,0,0,1,120,0Z" transform="translate(-5603 9366) rotate(-90)" fill="#2fad62"/><path d="M108.888,217.774A108.885,108.885,0,0,1,0,108.889H0A108.886,108.886,0,0,1,108.888,0Z" transform="translate(-5591.844 9354.887) rotate(-90)" fill="#fff"/><path d="M97.536,195.071A97.534,97.534,0,0,1,0,97.537H0A97.534,97.534,0,0,1,97.536,0Z" transform="translate(-5580.688 9343.535) rotate(-90)" fill="#ef5a37"/><g transform="translate(-5542.438 9258.886)"><path d="M0,16.94V0H16.889A16.941,16.941,0,0,1,0,16.94" transform="translate(11.979 0) rotate(45)"/><path d="M0,16.94V0H16.889A16.941,16.941,0,0,1,0,16.94" transform="translate(35.899 23.921) rotate(45)"/><path d="M0,16.94V0H16.889A16.941,16.941,0,0,1,0,16.94" transform="translate(62.441 0) rotate(45)"/><path d="M0,16.94V0H16.889A16.941,16.941,0,0,1,0,16.94" transform="translate(62.441 47.841) rotate(45)"/><path d="M0,16.94V0H16.889A16.941,16.941,0,0,1,0,16.94" transform="translate(106.724 0) rotate(45)"/><path d="M0,16.94V0H16.889A16.941,16.941,0,0,1,0,16.94" transform="translate(89.086 23.921) rotate(45)"/></g></g></g></svg>