<svg xmlns="http://www.w3.org/2000/svg" width="1488.3" height="888.335" viewBox="0 0 1488.3 888.335"><g transform="translate(0 -98.622)"><rect width="162.074" height="421.269" transform="translate(501.92 527.063)" fill="#f9d938"/><path d="M283.285,578.2h0c41.773,51.454,120.3,51.454,162.074,0Z" transform="translate(218.635 370.131)" fill="#ef5a37"/><rect width="51.268" height="421.269" transform="translate(582.956 527.063)"/><rect width="162.074" height="314.028" transform="translate(1326.226 672.929)" fill="#f9d938"/><rect width="51.268" height="314.028" transform="translate(1407.264 672.929)"/><path d="M884.08,447.69c-13.673-12.936-43.954-35.356-62.56-35.356s-48.894,22.42-62.569,35.356L813.472,346.1c3.6-7.551,12.5-7.551,16.1,0Z" transform="translate(585.747 186.628)"/><path d="M910.6,456.4,899.757,432.09h-.026c-14.013-31.619-40.179-52.911-70.168-52.911s-56.155,21.292-70.168,52.911h-.025L748.525,456.4Z" transform="translate(577.701 216.53)" fill="#6b645f"/><path d="M863.048,399.654c-13.421-12.874-29.991-20.476-47.92-20.476s-34.482,7.6-47.9,20.457Z" transform="translate(592.136 216.529)" fill="#fff"/><path d="M238.415,181.712H124.495L90.012,922.828H272.9Z" transform="translate(69.47 64.127)" fill="#6b645f"/><path d="M501.851,567.68c0-138.582-112.344-250.926-250.926-250.926S0,429.1,0,567.68Z" transform="translate(0 168.351)" fill="#2fad62"/><path d="M441.97,399.406c0-115.545-93.669-209.214-209.216-209.214S23.542,283.861,23.542,399.406Z" transform="translate(18.169 70.672)" fill="#c6d33a"/><path d="M352.968,245.84a147.218,147.218,0,1,0-294.435,0Z" transform="translate(45.175 0)" fill="#2fad62"/><path d="M987.086,340.319H424.567l-49.743,460.1h662.006Z" transform="translate(289.284 186.538)" fill="#805590"/><path d="M922.192,362.344h-486.6l-25.865,285.8H948.057Z" transform="translate(316.219 203.537)" fill="#fff"/><rect width="554.342" height="38.657" transform="translate(664.106 948.3)" fill="#4da2e2"/><rect width="194.865" height="19.778" transform="translate(808.675 928.519)" fill="#fff"/><rect width="46.759" height="19.778" transform="translate(1079.292 928.519)" fill="#fff"/><rect width="46.759" height="19.778" transform="translate(1139.109 928.519)" fill="#fff"/><rect width="46.759" height="19.778" transform="translate(1019.477 928.519)" fill="#fff"/><rect width="46.759" height="19.778" transform="translate(684.82 928.519)" fill="#fff"/><rect width="46.759" height="19.778" transform="translate(744.635 928.519)" fill="#fff"/><path d="M808.265,629.9a68.644,68.644,0,0,0-137.289,0" transform="translate(517.85 357.055)" fill="#ffa8b4"/></g></svg>