<svg xmlns="http://www.w3.org/2000/svg" width="414" height="282.797" viewBox="0 0 414 282.797"><g transform="translate(-1366 -9384.208)"><path d="M207,0C321.323,0,414,92.677,414,207c-54.848.015-349.74-.01-414,0C0,92.677,92.677,0,207,0Z" transform="translate(1366 9460)" fill="#00446d"/><g transform="translate(11247.869 590.581)"><g transform="translate(-9782.534 8793.627)"><g transform="translate(0)"><ellipse cx="108.554" cy="75.792" rx="108.554" ry="75.792" fill="#fff"/><path d="M6835.038,10429.558l-56.545-3.366,18.968-38.354Z" transform="translate(-6584.319 -10317.153)" fill="#fff"/></g><g transform="translate(46.026 29.529)"><g transform="translate(0 3.986)"><g transform="translate(0)"><path d="M6830.736,10380.537l10.086-1.928.968,5.035c1.745-3.424,4.28-6.73,9.321-7.7,7.7-1.475,13.03,2.662,14.61,10.885l4.409,23.023-10.083,1.934-3.8-19.842c-.916-4.777-3.576-6.811-7.49-6.059s-5.835,3.66-4.918,8.441l3.8,19.836-10.085,1.936Zm14.963-8.439a12.664,12.664,0,0,0-4.131-.371c-2.056.391-2.572,1.66-3.156,3.973l-5.7-.631c.541-5.812,1.832-9.838,6.478-10.732a15.337,15.337,0,0,1,6.316.307,12.488,12.488,0,0,0,4.127.373c2.058-.389,2.571-1.658,3.162-3.975l5.691.625c-.458,5.869-1.894,9.863-6.472,10.736A15.149,15.149,0,0,1,6845.7,10372.1Z" transform="translate(-6830.736 -10361.041)"/></g><g transform="translate(34.227 51.096)"><path d="M6882.774,10437.855a21.2,21.2,0,0,1-13.8,5.248c-8.956,0-15.823-5.248-15.823-13.592v-.135c0-5.994,3.23-10.238,9.156-12.928a15.325,15.325,0,0,1-3.3-9.43v-.133c0-6.4,5.122-12.387,14.277-12.387,8.012,0,13.264,5.18,13.264,11.85v.131c0,6.334-3.972,9.969-9.9,12.326l6.261,6.256c1.552-2.418,3.034-5.178,4.582-8.076l7.607,4.176a86.967,86.967,0,0,1-6.194,9.967l6.932,6.932-7.606,5.318Zm-5.789-5.922-9.023-9.152c-3.163,1.607-4.376,3.836-4.376,6.2v.131c0,3.3,2.763,5.52,6.6,5.52A11.189,11.189,0,0,0,6876.985,10431.934Zm.539-24.838v-.141a4.156,4.156,0,0,0-4.445-4.377c-2.76,0-4.578,1.887-4.578,4.785v.127c0,2.094.81,3.639,2.763,5.859C6875.37,10411.8,6877.524,10410.057,6877.524,10407.1Z" transform="translate(-6853.151 -10394.5)"/></g></g><path d="M27.917,16.327a9.9,9.9,0,0,0-1.605-4.307q-1.879-2.584-5.834-2.584-5.638,0-7.713,5.6a23.409,23.409,0,0,0-1.1,7.909,21.524,21.524,0,0,0,1.1,7.557q2,5.325,7.518,5.325,3.915,0,5.56-2.114a10.524,10.524,0,0,0,2-5.482H39.232a18.668,18.668,0,0,1-3.68,9.632,16.7,16.7,0,0,1-14.33,7.322l-2.467,3.641q1.292-.274,1.84-.372a6.684,6.684,0,0,1,1.175-.1A7.706,7.706,0,0,1,26.82,49.9,5.426,5.426,0,0,1,28.7,54.346a6.635,6.635,0,0,1-2.937,5.7,12.71,12.71,0,0,1-7.557,2.095,17.675,17.675,0,0,1-4.816-.822q-1.292-.392-3.641-1.253l1.488-3.367q2.232.666,3.054.861a13.2,13.2,0,0,0,3.054.47,4.7,4.7,0,0,0,3.367-1,2.934,2.934,0,0,0,1.018-2.095,2.454,2.454,0,0,0-1.135-2.31,4.721,4.721,0,0,0-2.428-.666,6.946,6.946,0,0,0-1.527.176q-.783.176-1.762.489l-1.684-1.566,3.876-5.873A14.985,14.985,0,0,1,4.855,39.076Q0,32.968,0,23.218q0-11,5.364-17.11T20.164,0Q28.191,0,33.3,3.6T39.35,16.327Z" transform="translate(89.334 0) rotate(9)"/></g></g></g></g></svg>