<svg xmlns="http://www.w3.org/2000/svg" width="414" height="310.108" viewBox="0 0 414 310.108"><g transform="translate(-1366 -8889.896)"><path d="M207,0C321.323,0,414,92.677,414,207c-54.848.015-349.74-.01-414,0C0,92.677,92.677,0,207,0Z" transform="translate(1366 8993)" fill="#00446d"/><g transform="translate(11541 1668.944)"><rect width="232.209" height="188.258" transform="translate(-10084 7239.3)" fill="#ef5a37"/><rect width="12.686" height="32.301" rx="6.343" transform="translate(-10047.668 7220.952)"/><rect width="12.686" height="32.301" rx="6.343" transform="translate(-9901.163 7220.952)"/><rect width="188.991" height="153.097" transform="translate(-10062.757 7256.881)" fill="#fff"/><path d="M29.444,70.38A35.308,35.308,0,0,0,40.8,68.63a25.01,25.01,0,0,0,8.552-4.84,20.9,20.9,0,0,0,5.371-7.3,22.417,22.417,0,0,0,1.846-9.134v-.2a19.2,19.2,0,0,0-1.72-8.278,16.039,16.039,0,0,0-4.493-5.649A22.643,22.643,0,0,0,44,29.714a37.661,37.661,0,0,0-7.325-1.849L55.329,11.53,55.31.473H6.067l-.3,12.591H34.585L16.8,29.328l2.377,9.612h6.795a29.668,29.668,0,0,1,6.164.581,14.774,14.774,0,0,1,4.555,1.7,7.924,7.924,0,0,1,2.821,2.762,7.265,7.265,0,0,1,.955,3.767v.2a8.053,8.053,0,0,1-.786,3.509A7.691,7.691,0,0,1,37.5,54.136a10.12,10.12,0,0,1-3.36,1.706,14.952,14.952,0,0,1-4.328.6,25.107,25.107,0,0,1-5.351-.541,20.259,20.259,0,0,1-4.629-1.6,22.48,22.48,0,0,1-4.122-2.629,33.4,33.4,0,0,1-3.831-3.62L.315,58.147a34.763,34.763,0,0,0,5.257,4.964,33.15,33.15,0,0,0,6.507,3.867,37.016,37.016,0,0,0,7.909,2.509A47.827,47.827,0,0,0,29.444,70.38Zm52.613-1.22H98.44L96.838,0H85.909L65.027,5.7,68.47,17.78l12.771-2.89Z" transform="translate(-10021.448 7297.901)"/></g></g></svg>