<?xml version="1.0" encoding="utf-8"?>
<!-- Generator: Adobe Illustrator 26.3.1, SVG Export Plug-In . SVG Version: 6.00 Build 0)  -->
<svg version="1.1" id="Layer_1" xmlns="http://www.w3.org/2000/svg" xmlns:xlink="http://www.w3.org/1999/xlink" x="0px" y="0px"
	 viewBox="0 0 535.4 535.8" style="enable-background:new 0 0 535.4 535.8;" xml:space="preserve">
<style type="text/css">
	.st0{fill:#8255A5;}
	.st1{fill:#C6D33A;}
	.st2{fill:#2FAD62;}
	.st3{fill:#EF5A37;}
	.st4{enable-background:new    ;}
	.st5{fill:#FFFFFF;}
</style>
<g transform="translate(18304.354 -8679)">
	<g transform="translate(-18997 1148)">
		<path class="st0" d="M966.8,7634.9L966.8,7634.9c87.1,0.3,157.6,71,157.6,158.1H1228c0-144.4-116.9-261.5-261.2-262V7634.9z"/>
		<path class="st1" d="M953.8,7634.9L953.8,7634.9c-87.1,0.3-157.6,71-157.6,158.1H692.6c0-144.4,116.9-261.5,261.2-262V7634.9z"/>
		<path class="st2" d="M953.8,7963L953.8,7963c-87.1-0.3-157.6-71-157.6-158.1H692.6c0,144.4,116.9,261.5,261.2,262V7963z"/>
		<path class="st3" d="M966.8,7963L966.8,7963c87.1-0.3,157.6-71,157.6-158.1H1228c0,144.4-116.9,261.5-261.2,262V7963z"/>
		<path d="M1080.2,7798.6c0-66.2-53.7-119.9-119.9-119.9s-119.9,53.7-119.9,119.9s53.7,119.9,119.9,119.9c0,0,0,0,0,0
			C1026.5,7918.4,1080.2,7864.7,1080.2,7798.6"/>
	</g>
	<g class="st4">
		<path class="st5" d="M-18067.5,8990.4h5.2c3.2,0,5.2,1.7,5.2,4.4v0c0,3-2.5,4.6-5.5,4.6h-3.4v4.9h-1.6V8990.4z M-18062.4,8998.1
			c2.3,0,3.8-1.2,3.8-3.1v0c0-2-1.5-3-3.8-3h-3.5v6.2H-18062.4z"/>
		<path class="st5" d="M-18054.3,8990.1h1.8v1.7h-1.8V8990.1z M-18054.2,8994.1h1.5v10.3h-1.5V8994.1z"/>
		<path class="st5" d="M-18049,8989.8h1.5v14.6h-1.5V8989.8z"/>
		<path class="st5" d="M-18044.6,9001.4L-18044.6,9001.4c0-2.2,1.8-3.4,4.4-3.4c1.3,0,2.2,0.2,3.2,0.4v-0.4c0-1.9-1.1-2.8-3.1-2.8
			c-1.2,0-2.2,0.3-3.1,0.8l-0.5-1.3c1.1-0.5,2.2-0.9,3.8-0.9c1.5,0,2.6,0.4,3.3,1.1c0.7,0.7,1.1,1.7,1.1,3v6.3h-1.5v-1.6
			c-0.7,0.9-1.9,1.8-3.7,1.8C-18042.7,9004.7-18044.6,9003.6-18044.6,9001.4z M-18037,9000.6v-1c-0.8-0.2-1.8-0.4-3-0.4
			c-1.9,0-3,0.8-3,2.1v0c0,1.3,1.2,2.1,2.6,2.1C-18038.6,9003.4-18037,9002.3-18037,9000.6z"/>
		<path class="st5" d="M-18032.3,8994.1h1.5v2.7c0.8-1.7,2.3-2.9,4.2-2.9v1.7h-0.1c-2.3,0-4.1,1.6-4.1,4.7v4.1h-1.5V8994.1z"/>
		<path class="st5" d="M-18025.3,8999.3L-18025.3,8999.3c0-3,2.1-5.4,5-5.4c3.1,0,4.8,2.4,4.8,5.5c0,0.2,0,0.3,0,0.5h-8.2
			c0.2,2.2,1.8,3.5,3.6,3.5c1.4,0,2.4-0.6,3.3-1.5l1,0.9c-1,1.2-2.3,1.9-4.3,1.9C-18022.9,9004.7-18025.3,9002.5-18025.3,8999.3z
			 M-18017,8998.7c-0.2-1.9-1.2-3.5-3.3-3.5c-1.8,0-3.1,1.5-3.4,3.5H-18017z"/>
		<path class="st5" d="M-18013.6,9003.1l0.8-1.1c1.1,0.9,2.4,1.3,3.6,1.3c1.3,0,2.1-0.6,2.1-1.6v0c0-1-1.2-1.4-2.6-1.8
			c-1.6-0.5-3.4-1-3.4-2.9v0c0-1.8,1.5-3,3.5-3c1.3,0,2.7,0.4,3.7,1.1l-0.7,1.2c-1-0.6-2-1-3.1-1c-1.2,0-2,0.6-2,1.5v0
			c0,1,1.3,1.4,2.7,1.8c1.6,0.5,3.3,1.1,3.3,3v0c0,2-1.6,3.1-3.7,3.1C-18010.9,9004.6-18012.5,9004.1-18013.6,9003.1z"/>
	</g>
	<g class="st4">
		<path class="st5" d="M-18090.9,8900h5l5.5,8.9l5.5-8.9h5v21h-4.6v-13.7l-5.9,9h-0.1l-5.8-8.9v13.6h-4.5V8900z"/>
		<path class="st5" d="M-18066.1,8913.1L-18066.1,8913.1c0-4.7,3.7-8.4,8.7-8.4c5,0,8.7,3.7,8.7,8.3v0.1c0,4.6-3.7,8.4-8.7,8.4
			C-18062.4,8921.4-18066.1,8917.7-18066.1,8913.1z M-18053.2,8913.1L-18053.2,8913.1c0-2.4-1.7-4.5-4.2-4.5c-2.6,0-4.2,2-4.2,4.4
			v0.1c0,2.4,1.7,4.4,4.2,4.4C-18054.8,8917.4-18053.2,8915.5-18053.2,8913.1z"/>
		<path class="st5" d="M-18046.2,8913L-18046.2,8913c0-5.4,3.5-8.4,7.3-8.4c2.4,0,3.9,1.1,5,2.4v-7.9h4.6v21.9h-4.6v-2.3
			c-1.1,1.5-2.6,2.6-5,2.6C-18042.6,8921.3-18046.2,8918.4-18046.2,8913z M-18033.8,8913L-18033.8,8913c0-2.7-1.8-4.5-3.9-4.5
			c-2.1,0-3.9,1.7-3.9,4.4v0.1c0,2.7,1.8,4.4,3.9,4.4C-18035.5,8917.4-18033.8,8915.7-18033.8,8913z"/>
		<path class="st5" d="M-18026,8913.1L-18026,8913.1c0-4.7,3.3-8.4,7.9-8.4c5.4,0,7.8,4.2,7.8,8.7c0,0.4,0,0.8-0.1,1.2h-11.2
			c0.5,2.1,1.9,3.2,3.9,3.2c1.5,0,2.6-0.5,3.9-1.7l2.6,2.3c-1.5,1.9-3.7,3-6.6,3C-18022.4,8921.4-18026,8918-18026,8913.1z
			 M-18014.6,8911.7c-0.3-2-1.5-3.4-3.4-3.4s-3.1,1.4-3.5,3.4H-18014.6z"/>
		<path class="st5" d="M-18006.6,8899.1h4.6v21.9h-4.6V8899.1z"/>
		<path class="st5" d="M-17998.5,8913.1L-17998.5,8913.1c0-4.7,3.7-8.4,8.7-8.4c4.9,0,8.7,3.7,8.7,8.3v0.1c0,4.6-3.7,8.4-8.7,8.4
			C-17994.8,8921.4-17998.5,8917.7-17998.5,8913.1z M-17985.6,8913.1L-17985.6,8913.1c0-2.4-1.7-4.5-4.2-4.5c-2.6,0-4.2,2-4.2,4.4
			v0.1c0,2.4,1.7,4.4,4.2,4.4C-17987.2,8917.4-17985.6,8915.5-17985.6,8913.1z"/>
	</g>
	<g class="st4">
		<path class="st5" d="M-18125.5,8936h8.6c5,0,8,2.9,8,7.3v0.1c0,4.9-3.8,7.4-8.5,7.4h-3.5v6.3h-4.6V8936z M-18117.2,8946.6
			c2.3,0,3.7-1.4,3.7-3.2v-0.1c0-2.1-1.4-3.2-3.8-3.2h-3.6v6.4H-18117.2z"/>
		<path class="st5" d="M-18106.9,8949.1L-18106.9,8949.1c0-4.7,3.3-8.4,8-8.4c5.4,0,7.8,4.2,7.8,8.7c0,0.4,0,0.8-0.1,1.2h-11.2
			c0.4,2.1,1.9,3.2,3.9,3.2c1.5,0,2.6-0.5,3.9-1.7l2.6,2.3c-1.5,1.9-3.7,3-6.6,3C-18103.3,8957.4-18106.9,8954-18106.9,8949.1z
			 M-18095.5,8947.7c-0.3-2-1.5-3.4-3.4-3.4s-3.1,1.4-3.5,3.4H-18095.5z"/>
		<path class="st5" d="M-18088.4,8949L-18088.4,8949c0-5.4,3.5-8.4,7.3-8.4c2.4,0,3.9,1.1,5,2.4v-7.9h4.6v21.9h-4.6v-2.3
			c-1.1,1.5-2.6,2.6-5,2.6C-18084.8,8957.3-18088.4,8954.4-18088.4,8949z M-18076,8949L-18076,8949c0-2.7-1.8-4.5-3.9-4.5
			c-2.1,0-3.9,1.7-3.9,4.4v0.1c0,2.7,1.8,4.4,3.9,4.4C-18077.8,8953.4-18076,8951.7-18076,8949z"/>
		<path class="st5" d="M-18068.4,8952.4L-18068.4,8952.4c0-3.5,2.7-5.2,6.5-5.2c1.7,0,2.8,0.3,3.9,0.7v-0.3c0-1.9-1.2-2.9-3.5-2.9
			c-1.8,0-3,0.3-4.4,0.9l-1.1-3.5c1.8-0.8,3.5-1.3,6.2-1.3c2.5,0,4.3,0.6,5.4,1.8c1.2,1.2,1.7,3,1.7,5.1v9.3h-4.4v-1.7
			c-1.1,1.2-2.6,2-4.9,2C-18065.9,8957.3-18068.4,8955.6-18068.4,8952.4z M-18057.9,8951.3v-0.8c-0.8-0.4-1.8-0.6-2.9-0.6
			c-1.9,0-3.1,0.8-3.1,2.2v0.1c0,1.2,1,2,2.5,2C-18059.4,8954.2-18057.9,8953-18057.9,8951.3z"/>
		<path class="st5" d="M-18049.6,8960.2l1.6-3.4c1.7,0.9,3.3,1.5,5.4,1.5c3.1,0,4.6-1.5,4.6-4.4v-0.8c-1.3,1.6-2.8,2.6-5.2,2.6
			c-3.8,0-7.1-2.7-7.1-7.5v-0.1c0-4.8,3.4-7.5,7.1-7.5c2.5,0,4,1,5.2,2.4v-2.1h4.6v12.4c0,2.8-0.7,5-2,6.3c-1.5,1.5-3.8,2.2-6.9,2.2
			C-18045.1,8961.9-18047.6,8961.3-18049.6,8960.2z M-18038,8948.2L-18038,8948.2c0-2.2-1.7-3.8-3.9-3.8c-2.2,0-3.9,1.5-3.9,3.7v0.1
			c0,2.2,1.7,3.7,3.9,3.7S-18038,8950.4-18038,8948.2z"/>
		<path class="st5" d="M-18030.2,8949.1L-18030.2,8949.1c0-4.7,3.7-8.4,8.7-8.4c5,0,8.7,3.7,8.7,8.3v0.1c0,4.6-3.7,8.4-8.7,8.4
			C-18026.5,8957.4-18030.2,8953.7-18030.2,8949.1z M-18017.3,8949.1L-18017.3,8949.1c0-2.4-1.7-4.5-4.2-4.5c-2.6,0-4.2,2-4.2,4.4
			v0.1c0,2.4,1.7,4.4,4.2,4.4C-18018.9,8953.4-18017.3,8951.5-18017.3,8949.1z M-18020,8933.8l3.9,1.7l-3.9,3.6h-3.4L-18020,8933.8z
			"/>
		<path class="st5" d="M-18009.4,8960.2l1.6-3.4c1.7,0.9,3.3,1.5,5.4,1.5c3.1,0,4.6-1.5,4.6-4.4v-0.8c-1.3,1.6-2.8,2.6-5.2,2.6
			c-3.8,0-7.1-2.7-7.1-7.5v-0.1c0-4.8,3.5-7.5,7.1-7.5c2.5,0,4,1,5.2,2.4v-2.1h4.6v12.4c0,2.8-0.7,5-2,6.3c-1.5,1.5-3.8,2.2-6.9,2.2
			C-18005,8961.9-18007.4,8961.3-18009.4,8960.2z M-17997.9,8948.2L-17997.9,8948.2c0-2.2-1.7-3.8-3.9-3.8c-2.2,0-3.9,1.5-3.9,3.7
			v0.1c0,2.2,1.7,3.7,3.9,3.7S-17997.9,8950.4-17997.9,8948.2z"/>
		<path class="st5" d="M-17989.2,8935.1h4.8v4h-4.8V8935.1z M-17989.1,8940.9h4.6v16.1h-4.6V8940.9z"/>
		<path class="st5" d="M-17981,8949.1L-17981,8949.1c0-4.7,3.5-8.4,8.4-8.4c3,0,4.9,1,6.4,2.7l-2.8,3c-1-1.1-2-1.8-3.7-1.8
			c-2.3,0-3.9,2-3.9,4.4v0.1c0,2.5,1.6,4.4,4.1,4.4c1.5,0,2.6-0.7,3.7-1.7l2.7,2.7c-1.6,1.7-3.4,2.9-6.6,2.9
			C-17977.5,8957.4-17981,8953.6-17981,8949.1z"/>
		<path class="st5" d="M-17964.3,8949.1L-17964.3,8949.1c0-4.7,3.7-8.4,8.7-8.4c4.9,0,8.7,3.7,8.7,8.3v0.1c0,4.6-3.7,8.4-8.7,8.4
			C-17960.6,8957.4-17964.3,8953.7-17964.3,8949.1z M-17951.4,8949.1L-17951.4,8949.1c0-2.4-1.7-4.5-4.2-4.5c-2.6,0-4.2,2-4.2,4.4
			v0.1c0,2.4,1.7,4.4,4.2,4.4C-17953,8953.4-17951.4,8951.5-17951.4,8949.1z"/>
	</g>
</g>
</svg>
