<svg xmlns="http://www.w3.org/2000/svg" width="413.982" height="575.304" viewBox="0 0 413.982 575.304">
  <g id="F-N-P1" transform="translate(-933.643 67.866)">
    <path id="Trazado_16" data-name="Trazado 16" d="M161.117,161.117V92.362a91.755,91.755,0,0,1-65.31-27.053A91.758,91.758,0,0,1,68.753,0H0A160.147,160.147,0,0,0,12.67,62.719a160.542,160.542,0,0,0,34.518,51.208A160.946,160.946,0,0,0,98.4,148.448a160.182,160.182,0,0,0,62.719,12.67" transform="translate(1025.712 346.158)" fill="#8255a5"/>
    <path id="Trazado_15" data-name="Trazado 15" d="M0,0V68.622a91.578,91.578,0,0,1,65.183,27,91.58,91.58,0,0,1,27,65.183h68.62a159.837,159.837,0,0,0-12.645-62.6A160.232,160.232,0,0,0,113.709,47.1,160.635,160.635,0,0,0,62.6,12.645,159.872,159.872,0,0,0,0,0" transform="translate(1186.82 185.499)" fill="#00446d"/>
    <path id="Trazado_12" data-name="Trazado 12" d="M161.117,0V68.755a92.367,92.367,0,0,0-92.364,92.362H0A161,161,0,0,1,161.117,0" transform="translate(1094.76 185.319) rotate(90)" fill="#8caef9"/>
    <path id="Trazado_14" data-name="Trazado 14" d="M161.117,0V68.755a92.367,92.367,0,0,0-92.364,92.362H0A161,161,0,0,1,161.117,0" transform="translate(1025.712 185.275)" fill="#6b645f"/>
    <path id="Trazado_10" data-name="Trazado 10" d="M471.322,178.4v68.622a92.188,92.188,0,0,1,92.186,92.183h68.62A160.689,160.689,0,0,0,471.322,178.4" transform="translate(462.338 168.228)" fill="#ffa8b4"/>
    <path id="Trazado_44" data-name="Trazado 44" d="M0,160.805V92.183a91.578,91.578,0,0,0,65.183-27A91.58,91.58,0,0,0,92.186,0h68.62A159.836,159.836,0,0,1,148.16,62.6a160.232,160.232,0,0,1-34.451,51.109A160.635,160.635,0,0,1,62.6,148.16,159.872,159.872,0,0,1,0,160.805" transform="translate(1186.82 346.246)" fill="#00446d"/>
    <path id="Trazado_18" data-name="Trazado 18" d="M161.117,0V68.755a92.367,92.367,0,0,0-92.364,92.362H0A161,161,0,0,1,161.117,0" transform="translate(1025.863 254.216) rotate(-90)" fill="#ffa8b4"/>
    <path id="Trazado_9" data-name="Trazado 9" d="M321.983,160.994h-68.7a92.294,92.294,0,1,0-184.589,0H0A161.024,161.024,0,0,1,309.317,98.318a160.008,160.008,0,0,1,12.666,62.676" transform="translate(1094.958 -67.866) rotate(90)" fill="#c6d33a"/>
    <path id="Trazado_13" data-name="Trazado 13" d="M0,0V68.622a91.578,91.578,0,0,1,65.183,27,91.58,91.58,0,0,1,27,65.183h68.62a159.837,159.837,0,0,0-12.645-62.6A160.232,160.232,0,0,0,113.709,47.1,160.635,160.635,0,0,0,62.6,12.645,159.872,159.872,0,0,0,0,0" transform="translate(1094.536 346.426) rotate(90)" fill="#00446d"/>
  </g>
</svg>
