<svg xmlns="http://www.w3.org/2000/svg" width="1364" height="714.862" viewBox="0 0 1364 714.862"><g transform="translate(-278 -2594.728)"><path d="M0,0C197.329,0,357.295,159.967,357.295,357.3S197.329,714.59,0,714.59Z" transform="translate(570.117 2595)" fill="#f9d938"/><path d="M340.491,473.831c0-197.327,159.966-357.295,357.295-357.295S1055.081,276.5,1055.081,473.831,895.114,831.125,697.786,831.125,340.491,671.159,340.491,473.831" transform="translate(586.92 2478.464)"/><path d="M292.116,480.489H0V123.194c173.085,65.053,292.116,200.618,292.116,357.295" transform="translate(278 2471.534)" fill="#2fad62"/><path d="M292.116,690.489H0V333.194c173.085,65.053,292.116,200.618,292.116,357.295" transform="translate(278 2618.828)" fill="#4da2e2"/></g></svg>