<svg xmlns="http://www.w3.org/2000/svg" width="1364" height="909.818" viewBox="0 0 1364 909.818"><g transform="translate(-282 -9395)"><path d="M305.968,782.062c-125.618,0-227.454-101.834-227.454-227.454S180.35,327.157,305.968,327.157,533.421,428.991,533.421,554.608,431.588,782.062,305.968,782.062" transform="translate(1724.514 10177.063) rotate(180)"/><path d="M615.2,194.232A90.168,90.168,0,0,1,525.028,284.4v.076c151.24.538,273.632,123.253,273.632,274.49H978.532c0-250.7-202.907-454.147-453.5-454.9A90.168,90.168,0,0,1,615.2,194.232" transform="translate(1260.532 10408.883) rotate(180)" fill="#00446d"/><path d="M615.2,194.232a90.168,90.168,0,0,0-90.168-90.168V284.4A90.168,90.168,0,0,0,615.2,194.232" transform="translate(1260.532 10408.883) rotate(180)" fill="#4da2e2"/><path d="M301.6,557.935H756.509V104.4c-250.761,0-454.163,202.935-454.905,453.531" transform="translate(1492.696 10408.529) rotate(180)" fill="#ffa8b4"/><path d="M78.514,557.935H533.419V104.4c-250.761,0-454.163,202.935-454.905,453.531" transform="translate(1724.514 10408.529) rotate(180)" fill="#ef5a37"/></g></svg>