<svg xmlns="http://www.w3.org/2000/svg" width="1147.404" height="1148.041" viewBox="0 0 1147.404 1148.041"><g transform="translate(-772.552 67.866)"><path d="M321.467,321.466V184.284a183.073,183.073,0,0,1-130.308-53.976A183.078,183.078,0,0,1,137.178,0H0A319.53,319.53,0,0,0,25.279,125.14,320.32,320.32,0,0,0,94.151,227.311a321.125,321.125,0,0,0,102.176,68.876,319.6,319.6,0,0,0,125.14,25.279" transform="translate(1277.665 758.208)" fill="#8255a5"/><path d="M471.322,178.4V315.322A183.937,183.937,0,0,1,655.254,499.249H792.166A320.613,320.613,0,0,0,471.322,178.4" transform="translate(1127.79 259.251)" fill="#00446d"/><path d="M792.789,178.4V315.588A184.294,184.294,0,0,0,608.5,499.871H471.322A321.234,321.234,0,0,1,792.789,178.4" transform="translate(1593.837 -34.026) rotate(90)" fill="#8caef9"/><path d="M792.789,178.4V315.588A184.294,184.294,0,0,0,608.5,499.871H471.322A321.234,321.234,0,0,1,792.789,178.4" transform="translate(806.343 258.804)" fill="#6b645f"/><path d="M471.322,178.4V315.322A183.937,183.937,0,0,1,655.254,499.249H792.166A320.613,320.613,0,0,0,471.322,178.4" transform="translate(622.678 580.751)" fill="#ffa8b4"/><path d="M792.789,178.4V315.588A184.294,184.294,0,0,0,608.5,499.871H471.322A321.234,321.234,0,0,1,792.789,178.4" transform="translate(301.23 580.304)" fill="#ef5a37"/><path d="M0,320.844V183.927a182.719,182.719,0,0,0,130.056-53.872A182.724,182.724,0,0,0,183.932,0H320.844a318.909,318.909,0,0,1-25.23,124.9,319.7,319.7,0,0,1-68.738,101.974A320.5,320.5,0,0,1,124.9,295.614,318.981,318.981,0,0,1,0,320.844" transform="translate(1599.112 758.383)" fill="#00446d"/><path d="M792.789,178.4V315.588A184.294,184.294,0,0,0,608.5,499.871H471.322A321.234,321.234,0,0,1,792.789,178.4" transform="translate(1099.561 1046.084) rotate(-90)" fill="#ffa8b4"/><path d="M936.363,587.914H799.3a184.149,184.149,0,1,0-368.3,0H293.931a321.216,321.216,0,1,1,642.432,0" transform="translate(1682.52 -361.797) rotate(90)" fill="#c6d33a"/><path d="M471.322,178.4V315.322A183.937,183.937,0,0,1,655.254,499.249H792.166A320.613,320.613,0,0,0,471.322,178.4" transform="translate(1593.39 287.421) rotate(90)" fill="#00446d"/></g></svg>