<svg xmlns="http://www.w3.org/2000/svg" xmlns:xlink="http://www.w3.org/1999/xlink" width="70.408" height="88.647" viewBox="0 0 70.408 88.647"><defs><clipPath id="a"><rect width="70.408" height="88.648" fill="#fff"/></clipPath></defs><g clip-path="url(#a)"><path d="M.008,44.246c0-10.867-.024-21.734.011-32.6C.035,6.7,2.415,3.153,6.78.927a8.607,8.607,0,0,1,4-.926q17.775.043,35.55,0a2.332,2.332,0,0,1,1.818.79q6.939,7.279,13.882,14.555,3.531,3.7,7.057,7.406a12.044,12.044,0,0,1,.793.917,2.408,2.408,0,0,1,.529,1.61c0,.116,0,.231,0,.347q0,25.448,0,50.9a11.837,11.837,0,0,1-2.277,7.3,11.342,11.342,0,0,1-7.612,4.66,12.15,12.15,0,0,1-1.8.157q-23.54.012-47.081.013a11.751,11.751,0,0,1-11.4-9.309,12.247,12.247,0,0,1-.216-2.578Q0,60.5.008,44.246M44.192,4.168h-32c-.289,0-.58-.011-.867.013A7.31,7.31,0,0,0,5.289,7.957a7.69,7.69,0,0,0-.962,3.982q.009,32.3.011,64.6a9.55,9.55,0,0,0,.169,1.892,7.141,7.141,0,0,0,3.457,4.843,7.6,7.6,0,0,0,4.045,1.051q23.152-.007,46.3-.01a8.221,8.221,0,0,0,1.89-.178,7.239,7.239,0,0,0,5.4-4.75,8.736,8.736,0,0,0,.459-2.884c.039-1.56.011-3.121.011-4.682q0-21.851,0-43.7a1.858,1.858,0,0,0-.116-1.035H65c-3.844,0-7.688,0-11.532-.013a9.039,9.039,0,0,1-1.63-.162,9.131,9.131,0,0,1-6.543-4.78,9.583,9.583,0,0,1-1.107-4.832c.023-4.017.007-8.035.007-12.053V4.168m4.445,3.437a1.562,1.562,0,0,0-.094.328q.006,5.152.024,10.3a2.981,2.981,0,0,0,.108.675,5.107,5.107,0,0,0,5.013,3.848c2.886-.027,5.772-.005,8.658-.008.183,0,.366-.031.658-.057L48.637,7.605" transform="translate(0 0)" fill="#fff"/><path d="M54.684,85.887V84.748q0-10.749.006-21.5a4.738,4.738,0,0,1,.15-1.279A2.2,2.2,0,0,1,57.067,60.4a2.232,2.232,0,0,1,1.95,2.1c-.021.287.005.577.005.866q0,10.7,0,21.41V85.8a1.692,1.692,0,0,0,.708-.591Q63.67,81,67.6,76.785a2.625,2.625,0,0,1,1.252-.881,2.107,2.107,0,0,1,2.262.686,2.16,2.16,0,0,1,.191,2.424,3.207,3.207,0,0,1-.469.619q-3.509,3.778-7.027,7.549-2.481,2.663-4.969,5.319a5.342,5.342,0,0,1-.92.78,1.793,1.793,0,0,1-2.107-.007,5.117,5.117,0,0,1-.905-.8q-6-6.432-12-12.868a2.226,2.226,0,0,1-.292-2.907,2.009,2.009,0,0,1,2.751-.584,4.922,4.922,0,0,1,.978.844q4,4.27,7.981,8.556c.077.083.155.164.353.371" transform="translate(-21.697 -31.047)" fill="#fff"/><path d="M51.5,143.142q8.623,0,17.246,0a2.556,2.556,0,0,1,1.348.22,2.236,2.236,0,0,1,1.149,2.406,2.338,2.338,0,0,1-1.988,1.688,5.485,5.485,0,0,1-.606.012q-17.2,0-34.406.008a2.414,2.414,0,0,1-2.278-1.131,2.133,2.133,0,0,1,1.6-3.189c.315-.03.635-.015.953-.015H51.5" transform="translate(-16.276 -73.586)" fill="#fff"/></g></svg>