<svg xmlns="http://www.w3.org/2000/svg" xmlns:xlink="http://www.w3.org/1999/xlink" width="25" height="25" viewBox="0 0 25 25"><defs><clipPath id="a"><rect width="25" height="25" fill="#8255a5"/></clipPath></defs><g clip-path="url(#a)"><path d="M12.158,0h.684c.082.026.163.054.246.076a2.527,2.527,0,0,1,1.147.7q4.988,4.994,9.98,9.983c.057.057.116.114.17.175a2.211,2.211,0,0,1,.53.973c.024.1.056.2.085.3v.586c-.015.036-.032.07-.043.107a3.68,3.68,0,0,1-.162.534A2.248,2.248,0,0,1,22.714,14.8c-.127,0-.255,0-.4,0v.292q0,2.2,0,4.394c0,.968.012,1.937-.006,2.9a2.579,2.579,0,0,1-1.074,2.067,2.644,2.644,0,0,1-1.66.541q-1.928,0-3.857,0h-.073a.751.751,0,0,1-.747-.72c0-.073,0-.146,0-.22,0-1.88-.008-3.759,0-5.639a1.24,1.24,0,0,0-1.237-1.269c-.781-.015-1.562-.013-2.343,0a1.207,1.207,0,0,0-1.183.915,1.841,1.841,0,0,0-.04.459q0,2.77,0,5.541c0,.073,0,.147,0,.22a.746.746,0,0,1-.585.695A1.085,1.085,0,0,1,9.27,25q-1.916,0-3.832,0a2.96,2.96,0,0,1-.508-.044A2.635,2.635,0,0,1,2.884,23.33a2.757,2.757,0,0,1-.2-1.142q.006-3.552,0-7.1c0-.093.029-.194-.021-.265-.276-.024-.538-.027-.793-.071A2.285,2.285,0,0,1,.074,11.927a2.42,2.42,0,0,1,.662-1.118Q5.778,5.771,10.817.73q.06-.06.123-.118A2.265,2.265,0,0,1,12.054.045a.529.529,0,0,0,.1-.045" transform="translate(0)" fill="#8255a5"/></g></svg>