<svg xmlns="http://www.w3.org/2000/svg" xmlns:xlink="http://www.w3.org/1999/xlink" width="25.85" height="25.859" viewBox="0 0 25.85 25.859"><defs><clipPath id="a"><rect width="25.85" height="25.859" fill="#8255a5"/></clipPath></defs><g clip-path="url(#a)"><path d="M13.68,0a1.684,1.684,0,0,0,.214.042,12.885,12.885,0,0,1,3.056.6.92.92,0,0,1,.665.954,1.235,1.235,0,0,1-.069.293c-.1.284-.222.563-.316.85a.923.923,0,0,1-1.214.592A8.785,8.785,0,0,0,14.3,2.94a10.244,10.244,0,0,0-1.936-.076,10.137,10.137,0,0,0-2.612.509A10.007,10.007,0,0,0,6.6,5.13,10.2,10.2,0,0,0,3.867,8.585a9.573,9.573,0,0,0-.947,3.221,11,11,0,0,0-.083,1.282A9.51,9.51,0,0,0,3.6,16.712a10.407,10.407,0,0,0,3.272,4.218,9.928,9.928,0,0,0,4.3,1.932,8.582,8.582,0,0,0,1.831.152,10.311,10.311,0,0,0,7.014-3A9.991,9.991,0,0,0,22.6,10.1a1,1,0,0,1,.048-.8.844.844,0,0,1,.441-.4c.353-.135.706-.272,1.065-.386a.9.9,0,0,1,1.13.627c.1.328.185.663.26,1a11.318,11.318,0,0,1,.264,1.793,1.142,1.142,0,0,0,.043.189v1.565a.667.667,0,0,0-.037.139,11.715,11.715,0,0,1-.469,2.7,12.748,12.748,0,0,1-2.833,5.058,12.976,12.976,0,0,1-4.586,3.265,12.737,12.737,0,0,1-4.347,1,13.149,13.149,0,0,1-4.5-.579A12.945,12.945,0,0,1,0,13.061,12.521,12.521,0,0,1,.29,10.234a12.815,12.815,0,0,1,3-5.912A12.9,12.9,0,0,1,12,.041.932.932,0,0,0,12.165,0Z" transform="translate(0)" fill="#8255a5"/><path d="M239.1,146.431v.591c.089.006.169.015.249.015.58,0,1.161,0,1.741,0a.906.906,0,0,1,.061,1.81c-.706.019-1.415.031-2.119,0a1.838,1.838,0,0,1-1.721-1.541,2.657,2.657,0,0,1-.038-.375c0-.942-.006-1.884,0-2.827a1.868,1.868,0,0,1,.651-1.448,1.753,1.753,0,0,1,1.146-.459c.681-.014,1.363-.006,2.044,0A.907.907,0,0,1,241.1,144c-.572.008-1.144,0-1.716,0h-.244a1.025,1.025,0,0,0-.036.593c.061,0,.126.013.19.013.6,0,1.195,0,1.792,0a.907.907,0,0,1,.014,1.814c-.58.01-1.161,0-1.741,0H239.1" transform="translate(-221.258 -132.595)" fill="#8255a5"/><path d="M78.511,146.937H77.428c-.006.068-.016.132-.017.2,0,.269-.012.539,0,.807a.91.91,0,0,1-1.819.03c0-.025,0-.05,0-.076,0-1.11,0-2.22,0-3.329a2.363,2.363,0,0,1,4.668-.529,2.551,2.551,0,0,1,.063.549q.009,1.652,0,3.3a.912.912,0,0,1-.686.94.9.9,0,0,1-1.127-.808c-.012-.269,0-.538,0-.807,0-.083,0-.165,0-.276m0-1.828c0-.17,0-.31,0-.451a1.043,1.043,0,0,0-.009-.176.554.554,0,0,0-.544-.467.544.544,0,0,0-.536.474,2.768,2.768,0,0,0,0,.62c.366,0,.714,0,1.087,0" transform="translate(-70.492 -132.601)" fill="#8255a5"/><path d="M159.3,146.441c-.073-.007-.13-.009-.186-.018a.91.91,0,0,1,.12-1.81c.219,0,.438,0,.656,0a1.193,1.193,0,0,1,1.217,1.084,3.715,3.715,0,0,1-.077,1.4,2.3,2.3,0,0,1-1.884,1.714,2.35,2.35,0,0,1-2.695-1.8,2.443,2.443,0,0,1-.062-.524c-.007-.648-.013-1.3,0-1.944a2.345,2.345,0,0,1,1.769-2.276,2.3,2.3,0,0,1,2.326.674.873.873,0,0,1,.19.981.856.856,0,0,1-.8.565.839.839,0,0,1-.628-.216c-.05-.045-.1-.1-.148-.137a.546.546,0,0,0-.89.344.73.73,0,0,0-.007.126c0,.614,0,1.229,0,1.843a.55.55,0,0,0,.273.507.507.507,0,0,0,.55,0,.557.557,0,0,0,.273-.514" transform="translate(-145.831 -132.594)" fill="#8255a5"/><path d="M272.582,27.145c0-.282.005-.526,0-.769a.92.92,0,0,1,.957-.948c.185.006.37,0,.555,0a.905.905,0,0,1,.911.915c.005.259,0,.518,0,.8.278,0,.536,0,.794,0a.9.9,0,0,1,.9.706.758.758,0,0,1,.023.174c0,.219.007.438,0,.656a.9.9,0,0,1-.889.886c-.2.006-.4,0-.606,0h-.22c0,.278,0,.536,0,.795a.9.9,0,0,1-.707.9.762.762,0,0,1-.174.023c-.219,0-.438.007-.656,0a.9.9,0,0,1-.885-.89c-.006-.2,0-.4,0-.606v-.22c-.279,0-.537,0-.8,0a.9.9,0,0,1-.9-.706.765.765,0,0,1-.023-.174c0-.219-.007-.438,0-.656a.9.9,0,0,1,.889-.885c.2-.006.4,0,.606,0h.22" transform="translate(-252.59 -23.711)" fill="#8255a5"/></g></svg>