<svg xmlns="http://www.w3.org/2000/svg" xmlns:xlink="http://www.w3.org/1999/xlink" width="25" height="22.966" viewBox="0 0 25 22.966"><defs><clipPath id="a"><rect width="25" height="22.966" fill="#8255a5"/></clipPath></defs><g clip-path="url(#a)"><path d="M25,311.937a.311.311,0,0,0-.041.082,2.522,2.522,0,0,1-2.129,2.058,3.2,3.2,0,0,1-.439.017q-9.886,0-19.772,0a2.573,2.573,0,0,1-1.374-.347A2.493,2.493,0,0,1,.05,312.076a1.688,1.688,0,0,1,.041-.961,1.43,1.43,0,0,1,1.216-.988,3.913,3.913,0,0,1,.534-.032l21.432,0a1.947,1.947,0,0,1,.856.15,1.476,1.476,0,0,1,.8.932c.018.06.044.118.066.176Z" transform="translate(0 -291.13)" fill="#8255a5"/><path d="M22.186,6.978V5.9a5.414,5.414,0,0,1-.467-.321,1.4,1.4,0,0,1-.508-1.163,2.758,2.758,0,0,1,.324-1.164A4.913,4.913,0,0,1,22.275,2.2a.527.527,0,0,1,.843-.014,4.138,4.138,0,0,1,1,1.707,1.861,1.861,0,0,1,.046.893,1.455,1.455,0,0,1-.818,1.032l-.109.055c-.006,0-.01.012-.02.025V6.965h3.951a16.171,16.171,0,0,0,.021-2.083c-.058-.029-.124-.059-.187-.094a1.461,1.461,0,0,1-.8-1.284A3.265,3.265,0,0,1,26.368,2.5,14.369,14.369,0,0,1,27.221.323.5.5,0,0,1,27.743,0a.469.469,0,0,1,.423.282,11.158,11.158,0,0,1,.984,2.691,1.8,1.8,0,0,1-.009.916,1.519,1.519,0,0,1-.739.9c-.057.031-.116.056-.17.081a19.347,19.347,0,0,0-.012,2.072c.181.047,3.375.066,3.942.024a4.247,4.247,0,0,0,.021-1.09c-.081-.043-.169-.083-.25-.135a1.44,1.44,0,0,1-.717-1.324,2.887,2.887,0,0,1,.528-1.522,6.958,6.958,0,0,1,.553-.711.512.512,0,0,1,.823,0,4.109,4.109,0,0,1,1.006,1.732,1.621,1.621,0,0,1-.174,1.381,1.7,1.7,0,0,1-.724.583v1.1H33.5q2.038,0,4.076,0a1.6,1.6,0,0,1,.887.209,1.431,1.431,0,0,1,.718,1.126c.017.194.027.389.028.584,0,.765,0,1.53,0,2.295,0,.057,0,.114,0,.171a.6.6,0,0,1-.419.616c-.626.248-1.247.512-1.867.776a2.4,2.4,0,0,1-1.31.183,3.074,3.074,0,0,1-.629-.183c-.379-.144-.752-.305-1.128-.46l-.157-.065a1.335,1.335,0,0,0-1.089.02c-.387.168-.778.327-1.167.492a2.551,2.551,0,0,1-1.212.208,2.806,2.806,0,0,1-.8-.216c-.333-.129-.659-.276-.989-.412-.112-.047-.227-.088-.341-.129a1.109,1.109,0,0,0-.811,0q-.656.26-1.308.533a2.607,2.607,0,0,1-1.282.219,2.723,2.723,0,0,1-.748-.209c-.369-.149-.737-.3-1.1-.464a1.452,1.452,0,0,0-1.248-.009c-.378.169-.765.318-1.147.477a2.394,2.394,0,0,1-1.986.009c-.616-.252-1.225-.523-1.845-.765a.622.622,0,0,1-.438-.652c0-.407,0-.814,0-1.221,0-.488-.009-.977,0-1.465A2.581,2.581,0,0,1,16.292,8a1.461,1.461,0,0,1,1.325-1.017c.106,0,.211-.006.317-.006h4.253Z" transform="translate(-15.204 0)" fill="#8255a5"/><path d="M53.905,215.05v4.618c-.007.008-.012.015-.018.02s-.013.014-.019.014l-20.863,0a.4.4,0,0,1-.077-.017v-4.625c.063.019.114.03.163.049.256.1.513.2.766.314a3.272,3.272,0,0,0,2.672-.014c.381-.161.768-.31,1.146-.477a.622.622,0,0,1,.538.005c.416.182.835.359,1.257.528a3.2,3.2,0,0,0,2.512-.043c.389-.164.781-.319,1.168-.489a.6.6,0,0,1,.515-.006q.648.279,1.3.54a3.238,3.238,0,0,0,2.558-.062c.366-.156.734-.307,1.1-.47a.627.627,0,0,1,.538,0c.477.2.957.4,1.444.583a3.039,3.039,0,0,0,2.145-.008c.312-.114.617-.249.925-.374.067-.027.135-.051.229-.087" transform="translate(-30.914 -201.735)" fill="#8255a5"/></g></svg>