<svg xmlns="http://www.w3.org/2000/svg" xmlns:xlink="http://www.w3.org/1999/xlink" width="26.732" height="26.747" viewBox="0 0 26.732 26.747"><defs><clipPath id="a"><rect width="26.732" height="26.747" fill="#8255a5"/></clipPath></defs><g clip-path="url(#a)"><path d="M216.762,6.856c-.016.028-.045.056-.047.085a5.532,5.532,0,0,1-.423,1.7,5.531,5.531,0,0,1-.93,1.554,6.259,6.259,0,0,1-1.646,1.423,5.68,5.68,0,0,1-1.13.519,2.094,2.094,0,0,0-.248.114V16.5a6.219,6.219,0,0,0,.689.012c.235,0,.47,0,.7,0h2.1c.05.218.055,3.27.007,3.548h-3.492a3.568,3.568,0,0,0-.026.715c-.006.235,0,.47,0,.7V23.6h-3.576a3.675,3.675,0,0,1-.022-.7c-.006-.235,0-.47,0-.7V20.071h-3.507c-.054-.2-.066-3.215-.016-3.558.383,0,.772,0,1.16,0H208.7a1.373,1.373,0,0,0,.026-.183q0-1.944,0-3.889c0-.213,0-.219-.215-.286a5.653,5.653,0,0,1-1.7-.885,6.683,6.683,0,0,1-1.153-1.122,5.527,5.527,0,0,1-.7-1.062,6.477,6.477,0,0,1-.586-1.791,6.183,6.183,0,0,1-.084-1.473,6.312,6.312,0,0,1,.33-1.589,6,6,0,0,1,.849-1.628,4.535,4.535,0,0,1,.41-.5,6.958,6.958,0,0,1,1.019-.927,7.144,7.144,0,0,1,1.365-.742A6.7,6.7,0,0,1,209.559.08a5.466,5.466,0,0,1,1.452-.055A6.294,6.294,0,0,1,213.5.763a6.847,6.847,0,0,1,1.143.807,6.311,6.311,0,0,1,1.691,2.395,8.676,8.676,0,0,1,.371,1.345c.025.115-.047.244.056.346Zm-8.9-.595a2.667,2.667,0,1,0,5.334-.006,2.67,2.67,0,0,0-2.674-2.674,2.656,2.656,0,0,0-2.66,2.681" transform="translate(-190.031 -0.001)" fill="#8255a5"/><path d="M5.639,68.467c-.028-.016-.056-.045-.085-.047A5.468,5.468,0,0,1,3.854,68,5.873,5.873,0,0,1,2.3,67.07a6.413,6.413,0,0,1-1.091-1.142A6.165,6.165,0,0,1,.33,64.256a6.376,6.376,0,0,1-.287-1.284A6.883,6.883,0,0,1,0,61.934a5.855,5.855,0,0,1,.2-1.326,5.764,5.764,0,0,1,.408-1.091,6.3,6.3,0,0,1,1.2-1.682A6.441,6.441,0,0,1,3.543,56.6c.232-.115.48-.2.723-.288.167-.064.169-.061.174-.235,0-.026,0-.052,0-.078V51.125a4.445,4.445,0,0,0-.411.394,1.4,1.4,0,0,1-.633.392,1.627,1.627,0,0,1-1.188-.1,1.418,1.418,0,0,1-.812-.99,1.5,1.5,0,0,1,.355-1.472Q3.93,47.178,6.106,45c.042-.042.087-.08.165-.151a2.3,2.3,0,0,0,.167.214q.883.888,1.772,1.771c.3.293.61.568.9.863q.825.833,1.634,1.682a1.366,1.366,0,0,1,.378.94,1.419,1.419,0,0,1-.179.851,1.585,1.585,0,0,1-1.315.8,1.53,1.53,0,0,1-1.23-.5c-.105-.111-.216-.217-.362-.363v4.881c0,.043,0,.087,0,.13a.166.166,0,0,0,.139.187c.165.05.327.113.487.178a5.934,5.934,0,0,1,1.874,1.237,6.519,6.519,0,0,1,1.191,1.534,6.042,6.042,0,0,1,.585,1.55,5.908,5.908,0,0,1,.158,1.828,6.825,6.825,0,0,1-.466,1.982,5.848,5.848,0,0,1-.929,1.555,6.282,6.282,0,0,1-3.313,2.114c-.265.069-.543.089-.815.134a.489.489,0,0,0-.111.049Zm.555-3.555A2.819,2.819,0,0,0,8.149,64.1a2.673,2.673,0,0,0-1.913-4.543,2.609,2.609,0,0,0-1.908.8,2.531,2.531,0,0,0-.763,1.873,2.665,2.665,0,0,0,2.629,2.682" transform="translate(0 -41.72)" fill="#8255a5"/></g></svg>