<svg xmlns="http://www.w3.org/2000/svg" xmlns:xlink="http://www.w3.org/1999/xlink" width="39.585" height="24" viewBox="0 0 39.585 24"><defs><clipPath id="a"><rect width="39.585" height="24" fill="#8255a5"/></clipPath></defs><g clip-path="url(#a)"><path d="M20.027,0c.112.054.22.117.336.16Q24.9,1.84,29.442,3.517l9.371,3.459c.108.04.214.087.321.133a.7.7,0,0,1,.451.7.674.674,0,0,1-.467.648c-.467.18-.938.349-1.427.53a2.383,2.383,0,0,0-1.434-.769c-.139-.025-.277-.055-.416-.083q-3.212-.649-6.425-1.3-2.8-.562-5.6-1.115a1.21,1.21,0,0,1-.575-.279,4.812,4.812,0,0,0-3.22-1.2,6.446,6.446,0,0,0-2.422.4,3.814,3.814,0,0,0-1.435.953,2.084,2.084,0,0,0,0,2.958,4.173,4.173,0,0,0,2.21,1.187,6.035,6.035,0,0,0,3.054-.067.911.911,0,0,1,.451-.018c1.372.282,2.746.553,4.12.829l4.423.889c.135.027.268.064.452.108-.111.054-.176.093-.246.118q-5.156,1.9-10.31,3.809a1.383,1.383,0,0,1-1.038,0q-7.393-2.746-14.794-5.47C3.263,9.488,2.035,9.028.8,8.585A1.525,1.525,0,0,1,0,8.042V7.578a1.126,1.126,0,0,1,.69-.563c1.077-.382,2.145-.792,3.217-1.188Q11.243,3.116,18.579.4c.332-.123.656-.269.984-.4Z" fill="#8255a5"/><path d="M89.036,127.725l2.293.847q3.708,1.37,7.415,2.743a2.385,2.385,0,0,0,1.731.006q3.325-1.238,6.656-2.461,1.429-.527,2.861-1.05c.059-.022.119-.04.21-.07.006.134.017.246.017.359q0,2.938,0,5.877c0,.535-.118.709-.613.9-3.153,1.184-6.308,2.362-9.457,3.557a1.411,1.411,0,0,1-1.074-.007q-4.743-1.8-9.494-3.566a.722.722,0,0,1-.557-.781q0-3.054,0-6.109c0-.062.008-.124.017-.24" transform="translate(-79.823 -114.531)" fill="#8255a5"/><path d="M239.345,78.142V73.484L227.5,71.1c.124-.224.255-.423.347-.638a7.13,7.13,0,0,0,.217-.69q.824.163,1.649.326,2.268.453,4.535.907,2.342.472,4.683.952c.327.067.655.132.982.2a3.1,3.1,0,0,1,.338.079.65.65,0,0,1,.493.62c.007.128.006.257.006.386q0,2.241,0,4.483v.422Z" transform="translate(-204.001 -62.563)" fill="#8255a5"/><path d="M328.537,167.73c0-.45-.007-.9,0-1.35a2.111,2.111,0,0,1,4.189-.331,4.09,4.09,0,0,1,.052.574q.009,1.2,0,2.392a1.707,1.707,0,0,1-.057.455.606.606,0,0,1-.481.449,2.149,2.149,0,0,1-.42.047q-1.177.007-2.354,0a1.679,1.679,0,0,1-.344-.033.661.661,0,0,1-.585-.7c-.009-.5,0-1,0-1.5Z" transform="translate(-294.596 -147.332)" fill="#8255a5"/><path d="M167.1,54.666a4.649,4.649,0,0,1,1.732.314,2.972,2.972,0,0,1,.783.476.791.791,0,0,1,.019,1.249,2.317,2.317,0,0,1-.673.436,4.617,4.617,0,0,1-2.338.335,4.053,4.053,0,0,1-1.378-.332,2.7,2.7,0,0,1-.674-.435.809.809,0,0,1,.006-1.256,2.215,2.215,0,0,1,.785-.479,5.189,5.189,0,0,1,1.739-.309" transform="translate(-147.304 -49.019)" fill="#8255a5"/></g></svg>