<svg xmlns="http://www.w3.org/2000/svg" xmlns:xlink="http://www.w3.org/1999/xlink" width="21.132" height="30.2" viewBox="0 0 21.132 30.2"><defs><clipPath id="a"><rect width="21.132" height="30.2" fill="#8255a5"/></clipPath></defs><g clip-path="url(#a)"><path d="M16.069,0a10.056,10.056,0,0,1,6.715,2.5A9.865,9.865,0,0,1,26.048,8.23a8.841,8.841,0,0,1,.158,2.344,11.681,11.681,0,0,1-.52,2.546,28.139,28.139,0,0,1-2.011,4.694,69.226,69.226,0,0,1-4.641,7.5,3.438,3.438,0,0,1-1,.941,3.486,3.486,0,0,1-4.148-.3,3.792,3.792,0,0,1-.612-.669,67.678,67.678,0,0,1-4.627-7.47A28.792,28.792,0,0,1,6.7,13.327,11.5,11.5,0,0,1,6.12,10.6a11.815,11.815,0,0,1,.028-1.411,8.577,8.577,0,0,1,.372-2A10.055,10.055,0,0,1,12.179.831,9.459,9.459,0,0,1,15.237.06L16.069,0M13.645,8.059H13.37c-.388,0-.776.014-1.163,0A1.049,1.049,0,0,0,11.123,9.14q.025,2.436,0,4.872a1.082,1.082,0,0,0,1.108,1.1q3.929-.025,7.859,0a1.078,1.078,0,0,0,1.109-1.1q-.027-2.436,0-4.872a1.055,1.055,0,0,0-1.084-1.085c-.408.018-.817,0-1.226,0a1.783,1.783,0,0,1-.212-.026c0-.177,0-.334,0-.491a1.508,1.508,0,0,0-1.509-1.493q-1.006-.011-2.012,0a1.509,1.509,0,0,0-1.509,1.493c0,.157,0,.314,0,.518" transform="translate(-5.594)" fill="#8255a5"/><path d="M2.067,285.2a1.932,1.932,0,0,0,.6.38,10.114,10.114,0,0,0,2.373.687,23.628,23.628,0,0,0,3.742.393c.921.02,1.843.055,2.764.037a27.4,27.4,0,0,0,4.588-.435,11.361,11.361,0,0,0,2.053-.563,2.793,2.793,0,0,0,.859-.475A.59.59,0,0,0,18.8,285a4.49,4.49,0,0,0-1.149-.493c-.32-.1-.645-.174-.968-.26a1.174,1.174,0,0,1-.5-.242,1.025,1.025,0,0,1-.25-1.2A1,1,0,0,1,17,282.255a9.517,9.517,0,0,1,2.742.961,3.394,3.394,0,0,1,.9.721,1.883,1.883,0,0,1-.064,2.592,4.393,4.393,0,0,1-1.547.994,12.7,12.7,0,0,1-2.777.758c-.908.154-1.822.254-2.741.326a37.485,37.485,0,0,1-4.018.1c-1.067-.031-2.132-.094-3.193-.225a21.982,21.982,0,0,1-2.656-.456,8.712,8.712,0,0,1-2.254-.846,3.221,3.221,0,0,1-.984-.817,1.864,1.864,0,0,1,.069-2.422,3.41,3.41,0,0,1,.931-.738,9.508,9.508,0,0,1,2.683-.94,1,1,0,0,1,.519,1.928c-.227.077-.466.117-.7.19-.378.12-.755.244-1.127.381a2.337,2.337,0,0,0-.726.436" transform="translate(0 -258.521)" fill="#8255a5"/><path d="M107.773,84.89c0-.175-.007-.331,0-.486a.483.483,0,0,1,.5-.494q1.005-.014,2.011,0a.484.484,0,0,1,.5.5c.009.155,0,.312,0,.464a28.943,28.943,0,0,1-3.016.021" transform="translate(-98.715 -76.853)" fill="#8255a5"/></g></svg>