<svg xmlns="http://www.w3.org/2000/svg" xmlns:xlink="http://www.w3.org/1999/xlink" width="25" height="27.56" viewBox="0 0 25 27.56"><defs><clipPath id="a"><rect width="25" height="27.56" fill="#8255a5"/></clipPath></defs><g clip-path="url(#a)"><path d="M57.727,0a1.069,1.069,0,0,0,.18.041A8.723,8.723,0,0,1,60.179.5a9.1,9.1,0,0,1,2.793,1.515A8.935,8.935,0,0,1,64.5,3.565a8.784,8.784,0,0,1,1.561,3.18,8.328,8.328,0,0,1,.257,2.719,8.728,8.728,0,0,1-1.467,4.259Q61.418,18.889,58,24.067c-.04.06-.079.121-.12.181a.858.858,0,0,1-1.424,0c-.238-.353-.471-.709-.705-1.063l-4.462-6.747c-.624-.943-1.257-1.882-1.87-2.832a8.573,8.573,0,0,1-1.373-3.876,9.078,9.078,0,0,1,.1-2.383,8.381,8.381,0,0,1,1.424-3.437A8.9,8.9,0,0,1,51.788,1.7,9.231,9.231,0,0,1,55.177.221C55.581.134,56,.1,56.408.042c.07-.01.138-.029.208-.043Zm3.611,8.9a4.168,4.168,0,0,0-8.332-.031,4.168,4.168,0,0,0,8.332.031" transform="translate(-44.67 0.001)" fill="#8255a5"/><path d="M5.978,275.271l.8,1.213q1.669,2.525,3.337,5.051a2.687,2.687,0,0,0,1.768,1.244,2.673,2.673,0,0,0,2.817-1.011c.4-.523.743-1.092,1.107-1.643q1.556-2.355,3.11-4.712c.029-.044.065-.085.108-.141.4.1.808.195,1.2.314a12.459,12.459,0,0,1,2.63,1.059,5.124,5.124,0,0,1,1.648,1.377A2.344,2.344,0,0,1,25,279.317a2.44,2.44,0,0,1-.71,1.81,6.966,6.966,0,0,1-2.573,1.642,16.764,16.764,0,0,1-3.4.965c-.808.145-1.621.27-2.436.366-.623.074-1.254.1-1.882.127-.776.028-1.555.051-2.331.034-.73-.016-1.458-.086-2.187-.135a22.182,22.182,0,0,1-2.5-.333,16.871,16.871,0,0,1-4.425-1.351A6.042,6.042,0,0,1,.7,281.107a2.322,2.322,0,0,1-.2-3.085,5.041,5.041,0,0,1,1.649-1.377,13.094,13.094,0,0,1,3.137-1.2c.222-.058.446-.114.7-.178" transform="translate(0 -256.707)" fill="#8255a5"/></g></svg>