<svg xmlns="http://www.w3.org/2000/svg" xmlns:xlink="http://www.w3.org/1999/xlink" width="40.813" height="44.612" viewBox="0 0 40.813 44.612"><defs><clipPath id="a"><rect width="40.813" height="44.612" fill="#6b645f"/></clipPath></defs><g transform="translate(0 0)"><g transform="translate(0 0)" clip-path="url(#a)"><path d="M10.377,13.821V49.154a20.23,20.23,0,0,1,0-35.333" transform="translate(-0.001 -4.778)" fill="#6b645f"/><path d="M10.226,6.274V0a7.181,7.181,0,0,1,3.685,6.274Z" transform="translate(-3.535 0)" fill="#6b645f"/><rect width="10.374" height="18.03" transform="translate(0.001 26.582)" fill="#6b645f"/><path d="M40.813,57.4H30.437a10.03,10.03,0,0,0-20.061,0H0A20.4,20.4,0,0,1,34.836,42.969,20.358,20.358,0,0,1,40.813,57.4" transform="translate(0 -12.787)" fill="#6b645f"/><path d="M0,17.326H10.377V9.589H5.038A5.036,5.036,0,0,0,0,14.625Z" transform="translate(-0.001 -3.315)" fill="#6b645f"/><path d="M55.132,44.911h0a2.68,2.68,0,1,1,2.681-2.681,2.681,2.681,0,0,1-2.681,2.681" transform="translate(-18.13 -13.671)" fill="#6b645f"/></g></g></svg>