<svg xmlns="http://www.w3.org/2000/svg" xmlns:xlink="http://www.w3.org/1999/xlink" width="58.329" height="36.847" viewBox="0 0 58.329 36.847"><defs><clipPath id="a"><rect width="58.329" height="36.847" fill="#8255a5"/></clipPath></defs><g transform="translate(0 0)" clip-path="url(#a)"><path d="M30.766,11.921a6.353,6.353,0,0,0-12.584-1.236C11.4,11.107-.229,11.845,0,11.921s11.429.421,18.088.62a6.353,6.353,0,0,0,12.675-.62" transform="translate(0 -1.925)" fill="#8255a5"/><path d="M69.953,0,44.49,14.812c-.214.067-.427.138-.639.216a12.986,12.986,0,0,0-4.419,2.73l4.546,4.853a6.428,6.428,0,1,1,8.788,9.383l4.547,4.853a13.092,13.092,0,0,0,3.334-14.066c-.113-.3-.239-.6-.372-.9A14.782,14.782,0,0,0,69.953,0" transform="translate(-13.63 0)" fill="#8255a5"/></g></svg>