<svg xmlns="http://www.w3.org/2000/svg" xmlns:xlink="http://www.w3.org/1999/xlink" width="42.218" height="42.217" viewBox="0 0 42.218 42.217"><defs><clipPath id="a"><rect width="42.218" height="42.217" fill="#6b645f"/></clipPath></defs><g clip-path="url(#a)"><path d="M24.942,19.037l-8.258,8.131,7.013.881A.981.981,0,1,1,23.452,30L14.9,28.922,9.647,34.1h0L1.4,42.217A42.242,42.242,0,0,0,42.218,0,42.242,42.242,0,0,0,0,40.842l7.972-7.849V25.636a.981.981,0,1,1,1.962,0v5.424L20.428,20.728l-.312-7.442a.981.981,0,1,1,1.96-.082l.238,5.668,1.532-1.508h0L35.669,5.722a.981.981,0,1,1,1.377,1.4l-10.11,9.954h5.538a.982.982,0,0,1,0,1.963Z" fill="#6b645f"/></g></svg>