<svg xmlns="http://www.w3.org/2000/svg" xmlns:xlink="http://www.w3.org/1999/xlink" width="38.453" height="53.799" viewBox="0 0 38.453 53.799"><defs><clipPath id="a"><rect width="38.453" height="53.799" fill="#6b645f"/></clipPath></defs><g transform="translate(0 0)" clip-path="url(#a)"><path d="M27.783,49.139a14.513,14.513,0,0,0,2.854-8.455c-.013-2.538-.019-5.544-.025-8.454,0-.317-.007-1.9-.019-2.218l7.861,7.143L28.477,18.426a35.972,35.972,0,0,1-.94-8.17V8.583A8.5,8.5,0,0,0,19.328,0a8.325,8.325,0,0,0-8.323,6.876c-4.123.373-7.2,1.85-7.2,3.618H10.88a35.947,35.947,0,0,1-.872,7.88L0,37.156l7.956-7.2c-.007.272-.013,1.813-.013,2.085-.006,2.967-.012,6.049-.026,8.644a14.583,14.583,0,0,0,2.835,8.436C8.209,50.276,6.617,51.943,6.617,53.8h25.27c0-1.844-1.585-3.5-4.1-4.66m-8.815-4.754c-2.8,0-5.07-5.26-5.07-11.75s2.273-11.745,5.07-11.745,5.077,5.26,5.077,11.745-2.274,11.75-5.077,11.75" transform="translate(0 -0.001)" fill="#6b645f"/></g></svg>