<svg xmlns="http://www.w3.org/2000/svg" xmlns:xlink="http://www.w3.org/1999/xlink" width="25" height="26.15" viewBox="0 0 25 26.15"><defs><clipPath id="a"><rect width="25" height="26.15" fill="#8255a5"/></clipPath></defs><g clip-path="url(#a)"><path d="M88.97,6.377a.652.652,0,0,0,.967-.013c.082-.084.155-.176.231-.266a7.519,7.519,0,0,0,1.364-2.231A3.769,3.769,0,0,0,91.8,2.038,2.39,2.39,0,0,0,89.451,0,2.363,2.363,0,0,0,87.5,1.039a2.614,2.614,0,0,0-.35,2.152,7.079,7.079,0,0,0,1.82,3.185m.483-5.42a1.456,1.456,0,0,1,1.419,1.415A1.439,1.439,0,0,1,89.445,3.8a1.393,1.393,0,0,1-1.428-1.425A1.415,1.415,0,0,1,89.453.956" transform="translate(-80.751 0.001)" fill="#8255a5"/><path d="M112.166,25.757a.605.605,0,1,0,.045-1.21.58.58,0,0,0-.626.594.589.589,0,0,0,.581.616" transform="translate(-103.496 -22.768)" fill="#8255a5"/><path d="M253.219,217.147a.617.617,0,0,0-.015,1.234.617.617,0,1,0,.015-1.234" transform="translate(-234.288 -201.406)" fill="#8255a5"/><path d="M54.625,15.9a12.579,12.579,0,0,0-2.754-.17,1.771,1.771,0,0,0-.191.03.37.37,0,0,0,0,.112A3.655,3.655,0,0,1,51.751,18a7.214,7.214,0,0,1-1.412,2.808,8.553,8.553,0,0,1-.6.7,1.455,1.455,0,0,1-1.9.19,3.14,3.14,0,0,1-.54-.53,8.689,8.689,0,0,1-1.417-2.3c-.135-.332-.226-.681-.344-1.046a12.091,12.091,0,0,0-2.427,2.12c.092.3.172.6.281.9a1.557,1.557,0,0,0,.64.786c.7.435,1.4.87,2.108,1.278a2.687,2.687,0,0,0,.718.226c.236.056.481.077.72.123a1.779,1.779,0,0,1,1.45,1.459,1.058,1.058,0,0,1-.478,1.1,5.206,5.206,0,0,1-.545.3c-.264.137-.529.274-.8.4a.517.517,0,0,0-.292.364c-.2.769-.4,1.536-.6,2.3,0,.017-.009.035-.012.053a.33.33,0,0,0,.161.393.325.325,0,0,0,.419-.145c.111-.165.211-.337.319-.5a1.134,1.134,0,0,1,1.536-.312,1.309,1.309,0,0,1,.413.458L50,30.59c.1.18.217.355.313.539a.536.536,0,0,0,.344.278c.551.172,1.1.355,1.646.537a1.6,1.6,0,0,1,1.113,1.091,1.567,1.567,0,0,1-.141,1.281c-.064.109-.133.215-.207.318a.844.844,0,0,0,.1,1.091c.216.219.422.447.627.676a1.467,1.467,0,0,1,.388,1.013,5.171,5.171,0,0,1-.023.758,1.444,1.444,0,0,1-.454.844c-.072.068-.145.137-.224.2a.752.752,0,0,0-.255.875c.056.2.146.386.218.57A12.358,12.358,0,0,0,63.6,33.942l-1.766-1.359c-.039.08-.074.141-.1.206a8.3,8.3,0,0,1-1.745,2.688,1.434,1.434,0,0,1-2.106.038,8.106,8.106,0,0,1-1.893-3,4.462,4.462,0,0,1-.255-1.27c0-.053-.014-.1-.021-.159a.306.306,0,0,0-.089,0,1.273,1.273,0,0,1-1.2-.239c-.257-.2-.519-.393-.788-.575a1.18,1.18,0,0,1-.269-1.715c.29-.381.56-.779.866-1.147a2.979,2.979,0,0,0,.643-1.468,3.642,3.642,0,0,1,.382-1.235A2.687,2.687,0,0,1,57.3,23.3a1.939,1.939,0,0,1,.647-.008,1.363,1.363,0,0,0,.3.008.842.842,0,0,0,.769-.467c.143-.272.29-.541.435-.812a1.673,1.673,0,0,1,1.369-.937.861.861,0,0,0,.677-.441c.13-.216.247-.441.374-.67a8.412,8.412,0,0,0-.957-.992,12.466,12.466,0,0,0-1.627-1.255l-1.866-1a12.029,12.029,0,0,0-2.794-.832" transform="translate(-39.986 -14.575)" fill="#8255a5"/><path d="M8.619,104.442a10.991,10.991,0,0,0,2.374.52c.467.045.936.069,1.4.1a1.531,1.531,0,0,0,.194-.012,2.364,2.364,0,0,1-.21-.985,1.463,1.463,0,0,1,.541-1.108c.048-.041.1-.075.148-.118a1.237,1.237,0,0,0,.167-.177,1.408,1.408,0,0,0-.082-1.429c-.18-.2-.361-.406-.555-.6a1.643,1.643,0,0,1-.18-2.152,1.044,1.044,0,0,0,.257-.557.781.781,0,0,0-.541-.841c-.477-.167-.956-.328-1.438-.477-.835-.258-.855-.347-1.245-1.016L8.5,93.954c-.018-.031-.034-.064-.054-.094-.173-.275-.414-.28-.6-.008-.112.164-.207.34-.322.5a1.086,1.086,0,0,1-.847.465,1.114,1.114,0,0,1-1.155-1.4c.2-.834.425-1.66.645-2.488a1.136,1.136,0,0,1,.614-.753c.4-.2.8-.413,1.2-.622.269-.141.32-.275.206-.548a.955.955,0,0,0-.719-.6c-.291-.061-.585-.11-.878-.16a2.95,2.95,0,0,1-1.055-.4c-.578-.353-1.152-.713-1.736-1.056a2.613,2.613,0,0,1-1.239-1.546,1.565,1.565,0,0,0-.073-.165c-.093.124-.177.229-.254.339A12.607,12.607,0,0,0,.229,90.172,12.415,12.415,0,0,0,.034,93.49a12.266,12.266,0,0,0,1.713,5.451,12.868,12.868,0,0,0,1.524,2.051L4.74,102.36a12.466,12.466,0,0,0,3.879,2.082" transform="translate(0 -78.912)" fill="#8255a5"/><path d="M200.476,84.4a1.582,1.582,0,0,1-1.206.782.974.974,0,0,0-.836.593c-.135.275-.279.547-.44.808a2,2,0,0,1-.357.437,1.717,1.717,0,0,1-1.423.374,1.946,1.946,0,0,0-2.11,1.436q-.09.368-.161.74a3.306,3.306,0,0,1-.644,1.472c-.325.411-.633.835-.944,1.256-.193.261-.168.426.091.618s.545.387.809.592a.468.468,0,0,0,.406.093c.157-.033.311-.079.458-.118.037-.118.065-.213.1-.306a3.173,3.173,0,0,1,.913-1.355,3.094,3.094,0,0,1,2.3-.78,3.055,3.055,0,0,1,2.105.986,3.192,3.192,0,0,1,.831,2.828,1.115,1.115,0,0,0,0,.166l1.892,1.454a12.449,12.449,0,0,0-1.512-12.521c-.09.151-.174.3-.266.443" transform="translate(-178.294 -77.874)" fill="#8255a5"/><path d="M230.1,192.913a2.406,2.406,0,0,0-1.745,2.384,3.51,3.51,0,0,0,.164,1.053,7.423,7.423,0,0,0,1.709,2.828.649.649,0,0,0,1.02-.022c.176-.194.344-.4.5-.6a6.806,6.806,0,0,0,1.2-2.26,3.184,3.184,0,0,0,.087-1.658,2.364,2.364,0,0,0-2.934-1.721m.626,3.721a1.42,1.42,0,0,1-1.43-1.427,1.436,1.436,0,0,1,1.428-1.431,1.416,1.416,0,0,1,1.428,1.43,1.4,1.4,0,0,1-1.426,1.428" transform="translate(-211.806 -178.85)" fill="#8255a5"/></g></svg>