<svg xmlns="http://www.w3.org/2000/svg" xmlns:xlink="http://www.w3.org/1999/xlink" width="28.825" height="28.854" viewBox="0 0 28.825 28.854"><defs><clipPath id="a"><rect width="28.825" height="28.854" fill="#8255a5"/></clipPath></defs><g clip-path="url(#a)"><path d="M0,26.656V2.2a.659.659,0,0,0,.048-.152A2.079,2.079,0,0,1,.524.867,2.3,2.3,0,0,1,2.423,0Q10.59,0,18.758,0a2.582,2.582,0,0,1,.587.056A2.243,2.243,0,0,1,21.02,1.532a2.7,2.7,0,0,1,.126.97q0,11.928,0,23.855c0,.122-.006.244-.01.366a2.249,2.249,0,0,1-1.607,2.022c-.124.034-.246.072-.369.108H2.029c-.023-.014-.045-.037-.069-.039A2.241,2.241,0,0,1,.046,26.779.436.436,0,0,0,0,26.656M4.55,14.149a6.04,6.04,0,1,0,6.058-6.038A6.043,6.043,0,0,0,4.55,14.149" transform="translate(0 0)" fill="#8255a5"/><path d="M372.85,69.768c.32.09.616.171.911.256q2.4.7,4.8,1.392a1.533,1.533,0,0,1,1.081.943,1.563,1.563,0,0,1,.029,1.021c-.25.854-.495,1.709-.742,2.564l-2.874,9.9q-.791,2.725-1.581,5.45a1.806,1.806,0,0,1-.461.855,1.536,1.536,0,0,1-1.164.424Z" transform="translate(-350.92 -65.664)" fill="#8255a5"/><path d="M149.908,200.941h-4.014a10.021,10.021,0,0,1,.271-1.93h3.467a9.375,9.375,0,0,1,.275,1.93" transform="translate(-137.313 -187.306)" fill="#8255a5"/><path d="M149.853,249.252a8.818,8.818,0,0,1-.26,1.892H146.12a9.625,9.625,0,0,1-.277-1.876c.2-.053,3.675-.066,4.009-.016" transform="translate(-137.266 -234.562)" fill="#8255a5"/><path d="M96.969,200.942H95.021a4.793,4.793,0,0,1,.611-1.93H97.2l-.233,1.93" transform="translate(-89.432 -187.307)" fill="#8255a5"/><path d="M229.958,200.988h-1.964c-.03-.329-.053-.653-.091-.975s-.088-.625-.136-.956h1.548a4.2,4.2,0,0,1,.642,1.932" transform="translate(-214.371 -187.348)" fill="#8255a5"/><path d="M96.953,249.1l.227,1.878a7.181,7.181,0,0,1-1.574.028,4.821,4.821,0,0,1-.6-1.869,10.091,10.091,0,0,1,1.949-.037" transform="translate(-89.416 -234.426)" fill="#8255a5"/><path d="M229.667,251.479h-1.434a1.243,1.243,0,0,1-.125-.014,6.429,6.429,0,0,1,.116-.941c.02-.317.055-.632.084-.962h1.965a4.818,4.818,0,0,1-.606,1.918" transform="translate(-214.688 -234.883)" fill="#8255a5"/><path d="M156.013,299.719h2.82a3.514,3.514,0,0,1-.757,1.243,1.477,1.477,0,0,1-.246.187.728.728,0,0,1-.8.008,1.786,1.786,0,0,1-.508-.48,4.673,4.673,0,0,1-.511-.958" transform="translate(-146.837 -282.09)" fill="#8255a5"/><path d="M158.985,156.738h-2.819a3.27,3.27,0,0,1,.8-1.278.81.81,0,0,1,1.163-.027,2.124,2.124,0,0,1,.511.628c.12.21.219.433.34.677" transform="translate(-146.981 -146.072)" fill="#8255a5"/><path d="M118.105,299.644h1.1l.5,1.116a5.008,5.008,0,0,1-1.6-1.116" transform="translate(-111.158 -282.02)" fill="#8255a5"/><path d="M215.084,299.644h1.048a3.59,3.59,0,0,1-1.535,1.109c.1-.2.186-.365.262-.537s.144-.364.225-.572" transform="translate(-201.975 -282.02)" fill="#8255a5"/><path d="M119.92,162.519l-.5,1.116c-.34.008-.69.006-1.093,0a4.993,4.993,0,0,1,1.592-1.117" transform="translate(-111.368 -152.96)" fill="#8255a5"/><path d="M216.4,163.886h-1.1l-.481-1.092a4.86,4.86,0,0,1,1.577,1.092" transform="translate(-202.186 -153.219)" fill="#8255a5"/></g></svg>