<svg xmlns="http://www.w3.org/2000/svg" xmlns:xlink="http://www.w3.org/1999/xlink" width="25" height="20.821" viewBox="0 0 25 20.821"><defs><clipPath id="a"><rect width="25" height="20.821" fill="#8255a5"/></clipPath></defs><g clip-path="url(#a)"><path d="M0,175.546v-7.762c.022-.033.044-.065.065-.1a.514.514,0,0,1,.755-.176c.041.026.08.055.121.082a2,2,0,0,0,1.147.349c.268,0,.537,0,.805,0q3.612,0,7.223,0a.447.447,0,0,1,.292.04v.241c0,.407-.005.814,0,1.22a.535.535,0,0,0,.594.587c.992,0,1.985,0,2.977,0a1.115,1.115,0,0,0,.122,0,.5.5,0,0,0,.451-.384,1.091,1.091,0,0,0,.031-.264c0-.39,0-.781,0-1.171,0-.08,0-.159,0-.267h.282q3.941,0,7.882,0a3.7,3.7,0,0,0,.558-.039,2.072,2.072,0,0,0,.859-.384.52.52,0,0,1,.827.444c0,.016,0,.033,0,.049,0,2.4.006,4.8,0,7.2a2.031,2.031,0,0,1-1.219,1.925,2.127,2.127,0,0,1-.972.183q-2.7,0-5.393,0H2.278a3,3,0,0,1-.56-.026,2.063,2.063,0,0,1-1.677-1.659A.31.31,0,0,0,0,175.546" transform="translate(0 -156.494)" fill="#8255a5"/><path d="M0,8.653V4.894a.351.351,0,0,0,.041-.082,2.044,2.044,0,0,1,1.3-1.553,2.208,2.208,0,0,1,.861-.133q2.4,0,4.808,0c.086,0,.178.03.271-.041,0-.228,0-.464,0-.7,0-.195.009-.39.033-.583A2,2,0,0,1,8.252.328,2.131,2.131,0,0,1,9.48,0c2.009.006,4.019,0,6.028,0,.073,0,.146,0,.22,0a2.048,2.048,0,0,1,1.947,1.787c.035.347.026.7.037,1.047,0,.087,0,.175,0,.287H18q2.38,0,4.759,0a2.877,2.877,0,0,1,.535.028,2.072,2.072,0,0,1,1.7,2.035q.012,1.574,0,3.148a2.07,2.07,0,0,1-2.065,2.069c-2.725.008-5.451,0-8.176,0a1.246,1.246,0,0,1-.165-.022c0-.162.005-.308,0-.454a.525.525,0,0,0-.333-.52.918.918,0,0,0-.311-.036q-1.281,0-2.563,0c-.163,0-.326,0-.488,0a.47.47,0,0,0-.443.356,1.322,1.322,0,0,0-.037.288c-.006.12,0,.24,0,.373-.073.005-.128.013-.183.013H2.1A2.1,2.1,0,0,1,.046,8.757.513.513,0,0,0,0,8.653M9.384,3.106c.38.043,6.057.029,6.239-.016,0-.167,0-.338,0-.508a2,2,0,0,0-.021-.5H9.384Z" transform="translate(0 0)" fill="#8255a5"/></g></svg>