<svg xmlns="http://www.w3.org/2000/svg" xmlns:xlink="http://www.w3.org/1999/xlink" width="26.128" height="26.119" viewBox="0 0 26.128 26.119"><defs><clipPath id="a"><rect width="26.128" height="26.119" fill="#8255a5"/></clipPath></defs><g clip-path="url(#a)"><path d="M8.592,10a11.772,11.772,0,0,0,7.525,7.528c.131-.147.272-.3.407-.456.248-.289.484-.589.743-.868a5.951,5.951,0,0,1,.668-.636,1.4,1.4,0,0,1,1.259-.25,7.717,7.717,0,0,1,1.775.74A38.716,38.716,0,0,1,25.3,18.813a2.048,2.048,0,0,1,.75,1.04,1.109,1.109,0,0,1-.1.991,7.9,7.9,0,0,1-.612.863A17.675,17.675,0,0,1,22.9,24.025a19.389,19.389,0,0,1-2.229,1.6c-.232.14-.476.262-.717.386a1.11,1.11,0,0,1-.662.093,14.365,14.365,0,0,1-3.559-.943,23.544,23.544,0,0,1-5.475-3.144,30.045,30.045,0,0,1-3.8-3.374,28.85,28.85,0,0,1-4.449-6.02A17.792,17.792,0,0,1,.248,8.137C.146,7.7.089,7.247.014,6.8a1.073,1.073,0,0,1,.13-.709c.175-.317.343-.64.542-.942A23.316,23.316,0,0,1,4.007,1.134a6.339,6.339,0,0,1,1.13-.89L5.255.175A1.18,1.18,0,0,1,6.3.077,2.047,2.047,0,0,1,7.311.819Q8.4,2.332,9.357,3.931a18.067,18.067,0,0,1,1.186,2.26,6.6,6.6,0,0,1,.253.744,1.32,1.32,0,0,1-.243,1.256,7.487,7.487,0,0,1-.758.776c-.389.353-.8.687-1.2,1.037" transform="translate(0 0.001)" fill="#8255a5"/></g></svg>