<svg xmlns="http://www.w3.org/2000/svg" width="81.68" height="81.681" viewBox="0 0 81.68 81.681">
  <g id="Grupo_1329" data-name="Grupo 1329" transform="translate(-268.525 -831.05)">
    <circle id="Elipse_112" data-name="Elipse 112" cx="40.84" cy="40.84" r="40.84" transform="translate(268.525 831.049)" fill="#8caef9"/>
    <g id="Grupo_962" data-name="Grupo 962" transform="translate(279.587 846.848)">
      <path id="Trazado_225" data-name="Trazado 225" d="M307,879.313c9.2,0,14.889-7.289,14.889-7.289S316.2,864.736,307,864.736s-14.889,7.288-14.889,7.288,5.693,7.289,14.889,7.289" transform="translate(-292.111 -864.736)" fill="#fff"/>
      <path id="Trazado_226" data-name="Trazado 226" d="M308.316,881.509a7.289,7.289,0,1,1,14.461,1.309,17.575,17.575,0,0,1-14.343,0,7.3,7.3,0,0,1-.117-1.309" transform="translate(-300.716 -869.773)" fill="#f9d938"/>
      <path id="Trazado_227" data-name="Trazado 227" d="M317.809,882.151a2.837,2.837,0,1,1,2.837,2.837,2.837,2.837,0,0,1-2.837-2.837" transform="translate(-305.757 -872.477)"/>
      <path id="Trazado_228" data-name="Trazado 228" d="M370.494,879.313c9.2,0,14.889-7.289,14.889-7.289s-5.693-7.288-14.889-7.288-14.889,7.288-14.889,7.288,5.693,7.289,14.889,7.289" transform="translate(-325.826 -864.736)" fill="#fff"/>
      <path id="Trazado_229" data-name="Trazado 229" d="M371.81,881.509a7.289,7.289,0,1,1,14.461,1.309,17.575,17.575,0,0,1-14.343,0,7.3,7.3,0,0,1-.117-1.309" transform="translate(-334.431 -869.773)" fill="#f9d938"/>
      <path id="Trazado_230" data-name="Trazado 230" d="M381.3,882.151a2.837,2.837,0,1,1,2.837,2.837,2.837,2.837,0,0,1-2.837-2.837" transform="translate(-339.472 -872.477)"/>
      <path id="Trazado_231" data-name="Trazado 231" d="M370.418,880.276,355.6,911.323h14.891Z" transform="translate(-340.986 -872.987)" fill="#8255a5"/>
      <path id="Trazado_232" data-name="Trazado 232" d="M292.275,926.242v11.747a29.712,29.712,0,0,0,29.709-29.618H310.2a17.931,17.931,0,0,1-17.926,17.871" transform="translate(-262.43 -887.906)" fill="#00446d"/>
      <path id="Trazado_233" data-name="Trazado 233" d="M298.164,895.815a5.889,5.889,0,1,1-5.889,5.889,5.889,5.889,0,0,1,5.889-5.889" transform="translate(-244.498 -881.239)" fill="#ffa8b4"/>
    </g>
  </g>
</svg>
