<svg xmlns="http://www.w3.org/2000/svg" width="566.463" height="192.21" viewBox="0 0 566.463 192.21">
  <g id="Logo-Campito" transform="translate(-6284.725 -3910.024)">
    <g id="Grupo_340" data-name="Grupo 340">
      <path id="Trazado_446" data-name="Trazado 446" d="M6284.725,3982.732v-.264c0-26.987,20.636-48.154,48.682-48.154,18.785,0,31.22,7.938,39.29,19.182l-19.314,14.949c-5.292-6.482-11.245-10.848-20.241-10.848-12.964,0-22.092,11.113-22.092,24.606v.265c0,13.89,9.128,24.738,22.092,24.738,9.657,0,15.214-4.5,20.9-11.245l19.314,13.758c-8.863,12.038-20.5,20.9-40.877,20.9C6306.023,4030.621,6284.725,4010.381,6284.725,3982.732Z" fill="#2fac62"/>
      <path id="Trazado_447" data-name="Trazado 447" d="M6379.575,4008.264V4008c0-14.949,11.245-22.49,28.046-22.49a50.688,50.688,0,0,1,17.2,2.779V3987.1c0-7.541-4.63-11.774-14.287-11.774a51.551,51.551,0,0,0-19.843,3.969l-5.16-17.595a71.906,71.906,0,0,1,28.971-5.556c12.833,0,21.564,3.043,27.252,8.731,5.424,5.292,7.673,12.7,7.673,22.754v41.142h-24.738v-7.54a27.571,27.571,0,0,1-21.167,9.127C6389.894,4030.356,6379.575,4022.419,6379.575,4008.264Zm45.508-5.424v-3.307a27.642,27.642,0,0,0-9.922-1.852c-7.408,0-11.509,3.44-11.509,8.863v.265c0,4.894,3.7,7.8,8.863,7.8C6419.923,4014.614,6425.083,4010.116,6425.083,4002.84Z" fill="#ee5a37"/>
      <path id="Trazado_448" data-name="Trazado 448" d="M6462.257,3957.2h25.135v9.79c4.63-5.953,11.244-11.377,21.3-11.377,9.525,0,16.8,4.233,20.637,11.642,6.218-7.277,13.362-11.642,23.944-11.642,15.346,0,24.474,9.392,24.474,26.193v46.963H6552.61v-38.893c0-7.938-3.836-12.039-9.789-12.039s-10.319,4.1-10.319,12.039v38.893h-25v-38.893c0-7.938-3.968-12.039-9.921-12.039s-10.186,4.1-10.186,12.039v38.893h-25.135Z" fill="#4da1e1"/>
      <path id="Trazado_449" data-name="Trazado 449" d="M6590.71,3957.2h25.135v9.525c4.9-5.953,10.98-11.112,21.695-11.112,16.933,0,31.749,14.155,31.749,37.041v.264c0,23.284-14.683,37.438-31.616,37.438-10.848,0-17.066-4.894-21.828-10.318v29.9H6590.71Zm59.263,35.874v-.312c0-11.239-7.961-19.2-17.329-19.2-9.678,0-17.329,7.962-17.329,19.2v.312c0,11.241,7.651,19.2,17.329,19.2C6642.012,4012.277,6649.973,4004.471,6649.973,3993.074Z" fill="#c6d33a"/>
      <path id="Trazado_450" data-name="Trazado 450" d="M6680.27,3932.2h26.061v18.52H6680.27Zm.529,25h25v71.569h-25Z" fill="#ee5a37"/>
      <path id="Trazado_451" data-name="Trazado 451" d="M6724.454,4006.544v-29.235h-8.466V3957.2h8.466v-18.123h25V3957.2h16.669v20.109h-16.669v24.341c0,5.159,2.25,7.143,6.879,7.143a22.039,22.039,0,0,0,9.526-2.381v19.579a36.219,36.219,0,0,1-17.462,4.233C6733.186,4030.224,6724.454,4023.61,6724.454,4006.544Z" fill="#8badf8"/>
      <path id="Trazado_452" data-name="Trazado 452" d="M6772.211,3993.316v-.265c0-20.505,16.668-37.438,39.554-37.438s39.423,16.8,39.423,37.173v.265c0,20.5-16.8,37.438-39.687,37.438C6788.748,4030.489,6772.211,4013.821,6772.211,3993.316Zm54.636,0v-.265c0-8.863-6.35-16.272-15.346-16.272-9.128,0-14.949,7.144-14.949,16.007v.265c0,8.731,6.35,16.139,15.213,16.139C6820.894,4009.19,6826.847,4001.915,6826.847,3993.316Z" fill="#8155a4"/>
      <circle id="Elipse_4" data-name="Elipse 4" cx="8.833" cy="8.833" r="8.833" transform="translate(6623.768 3984.257)" fill="#8155a4"/>
      <path id="Trazado_465" data-name="Trazado 465" d="M6639.78,4054.3a40.216,40.216,0,0,1-73.93,0h-24.823a63.791,63.791,0,0,0,123.576,0Z" fill="#c6d33a"/>
    </g>
    <path id="Trazado_1246" data-name="Trazado 1246" d="M3.36,0H9.52V-8.56l3.24-3.36L21.44,0h7.4L16.92-16.12,28.36-28H20.8L9.52-15.76V-28H3.36ZM31.88-23.8h6.4v-5.4h-6.4ZM32.04,0h6.08V-21.44H32.04ZM43.68,0h6.08V-11.96c0-2.88,1.44-4.36,3.8-4.36s3.68,1.48,3.68,4.36V0h6.08V-13.88c0-4.96-2.64-7.96-7.28-7.96a7.642,7.642,0,0,0-6.28,3.44v-3.04H43.68ZM77.24.4a7.729,7.729,0,0,0,6.68-3.48V0H90V-29.2H83.92v10.56a8.233,8.233,0,0,0-6.68-3.2c-5.08,0-9.76,3.92-9.76,11.08v.08C67.48-3.52,72.24.4,77.24.4ZM78.8-4.76c-2.84,0-5.24-2.36-5.24-5.92v-.08c0-3.6,2.4-5.92,5.24-5.92S84-14.32,84-10.76v.08C84-7.12,81.64-4.76,78.8-4.76ZM105.44.48a10.665,10.665,0,0,0,8.76-4L110.72-6.6a7.088,7.088,0,0,1-5.2,2.2,4.973,4.973,0,0,1-5.24-4.2H115.2c.04-.6.08-1.12.08-1.6,0-6.08-3.28-11.64-10.44-11.64-6.24,0-10.6,5.04-10.6,11.16v.08C94.24-4.04,99,.48,105.44.48ZM100.2-12.4c.48-2.76,2.08-4.56,4.64-4.56s4.16,1.84,4.52,4.56ZM119.64,0h6.08V-7.92c0-5.16,2.48-7.56,6.52-7.56h.32v-6.36c-3.64-.16-5.6,1.8-6.84,4.72v-4.32h-6.08ZM145.4,6.48c4.16,0,7.2-.84,9.24-2.88,1.8-1.8,2.72-4.64,2.72-8.44v-16.6h-6.08v2.8a8.68,8.68,0,0,0-6.92-3.2c-4.92,0-9.52,3.6-9.52,10v.08c0,6.4,4.52,10,9.52,10a8.285,8.285,0,0,0,7-3.48V-4.2c0,3.84-1.96,5.84-6.12,5.84A13.991,13.991,0,0,1,138-.32l-2.08,4.56A20.225,20.225,0,0,0,145.4,6.48Zm.72-13.28a4.853,4.853,0,0,1-5.2-4.96v-.08a4.921,4.921,0,0,1,5.2-4.96,4.932,4.932,0,0,1,5.24,4.96v.08A4.932,4.932,0,0,1,146.12-6.8ZM168.72.4a8.184,8.184,0,0,0,6.48-2.72V0h5.88V-12.44c0-2.88-.72-5.24-2.32-6.84-1.56-1.56-3.88-2.4-7.24-2.4a19.5,19.5,0,0,0-8.32,1.72l1.52,4.64a14.885,14.885,0,0,1,5.92-1.16c3.04,0,4.6,1.36,4.6,3.92v.36a15.235,15.235,0,0,0-5.24-.88c-5.08,0-8.64,2.2-8.64,6.84v.08C161.36-1.88,164.68.4,168.72.4Zm1.84-4.2c-1.96,0-3.32-.96-3.32-2.6v-.08c0-1.92,1.6-2.96,4.2-2.96a9.571,9.571,0,0,1,3.88.8v1.08C175.32-5.32,173.44-3.8,170.56-3.8ZM186.16,0h6.08V-7.92c0-5.16,2.48-7.56,6.52-7.56h.32v-6.36c-3.64-.16-5.6,1.8-6.84,4.72v-4.32h-6.08Zm23.8.36a8.963,8.963,0,0,0,4.8-1.24V-5.76a5.977,5.977,0,0,1-3,.76c-1.32,0-1.96-.68-1.96-2.08v-9.16h5.04v-5.2H209.8v-5.48h-6.08v5.48h-2.56v5.2h2.56V-6.08C203.72-1.12,206.28.36,209.96.36Zm18.76.12a10.665,10.665,0,0,0,8.76-4L234-6.6a7.088,7.088,0,0,1-5.2,2.2,4.973,4.973,0,0,1-5.24-4.2h14.92c.04-.6.08-1.12.08-1.6,0-6.08-3.28-11.64-10.44-11.64-6.24,0-10.6,5.04-10.6,11.16v.08C217.52-4.04,222.28.48,228.72.48ZM223.48-12.4c.48-2.76,2.08-4.56,4.64-4.56s4.16,1.84,4.52,4.56ZM242.92,0H249V-11.96c0-2.88,1.44-4.36,3.8-4.36s3.68,1.48,3.68,4.36V0h6.08V-13.88c0-4.96-2.64-7.96-7.28-7.96A7.642,7.642,0,0,0,249-18.4v-3.04h-6.08Z" transform="translate(6386 3939.224)" fill="#2fac62"/>
  </g>
</svg>
